<?xml version="1.0" encoding="UTF-8"?>
<svg version="1.1" xmlns="http://www.w3.org/2000/svg" width="612" height="408">
<path d="M0 0 C7.10382506 4.08903101 12.25899577 10.11331925 14.625 18 C15.13436586 22.00936495 15.39797293 25.95891813 15.625 30 C21.235 30 26.845 30 32.625 30 C33.76351351 37.96959459 33.76351351 37.96959459 33.75 41.875 C33.75386719 43.01582031 33.75386719 43.01582031 33.7578125 44.1796875 C33.625 46 33.625 46 32.625 47 C30.86736328 47.05414063 30.86736328 47.05414063 29.07421875 47.109375 C23.3533985 47.7765706 20.33520551 51.29153454 16.4375 55.25 C15.70499023 55.96494629 14.97248047 56.67989258 14.21777344 57.41650391 C10.70341008 60.86131375 7.25582097 64.37102365 3.80859375 67.8828125 C3.22553467 68.47416992 2.64247559 69.06552734 2.04174805 69.67480469 C0.95978411 70.7784808 -0.11356037 71.89069834 -1.17651367 73.01269531 C-4.27036776 76.20508636 -6.06030822 77.27412329 -10.375 79 C-10.375 67.78 -10.375 56.56 -10.375 45 C-11.695 44.67 -13.015 44.34 -14.375 44 C-14.36833817 44.73978592 -14.36167633 45.47957184 -14.35481262 46.24177551 C-14.29437704 53.25791941 -14.24886222 60.27397118 -14.21956348 67.29030323 C-14.20399364 70.89636775 -14.1829172 74.50221485 -14.14868164 78.1081543 C-14.11577433 81.59654017 -14.09808195 85.08471864 -14.09036827 88.57324791 C-14.08223332 90.53334273 -14.05886565 92.49335562 -14.03511047 94.45332336 C-14.03302408 105.69066781 -15.28771229 115.65628609 -23.375 124 C-30.58126722 129.82634371 -38.38126779 130.81184607 -47.375 130 C-54.71359961 128.48737399 -61.12073225 124.98307877 -66.625 119.9375 C-72.40386931 110.23725508 -72.91420375 100.96380949 -72.375 90 C-69.56243719 89.97315688 -66.75012759 89.95323812 -63.9375 89.9375 C-63.13505859 89.92912109 -62.33261719 89.92074219 -61.50585938 89.91210938 C-59.46204779 89.9034857 -57.41816098 89.9477185 -55.375 90 C-53.5650082 91.8099918 -54.15911057 94.74463275 -54.0625 97.1875 C-53.64967163 103.35285487 -52.75719393 106.61780607 -48.375 111 C-46.3162232 111.27953219 -44.25771568 111.44734351 -42.1875 111.62109375 C-41.589375 111.74613281 -40.99125 111.87117188 -40.375 112 C-40.045 112.66 -39.715 113.32 -39.375 114 C-36.31771074 108.28419833 -35.27146886 103.73367185 -35.16967773 97.29174805 C-35.14973251 96.17096359 -35.12978729 95.05017914 -35.10923767 93.89543152 C-35.09252518 92.6963063 -35.07581268 91.49718109 -35.05859375 90.26171875 C-35.03781265 89.02581497 -35.01703156 87.78991119 -34.99562073 86.51655579 C-34.94140069 83.24347874 -34.89112422 79.9703726 -34.84277344 76.69720459 C-34.7923843 73.3521174 -34.73671184 70.00712276 -34.68164062 66.66210938 C-34.57464054 60.10814021 -34.47332264 53.55410486 -34.375 47 C-40.975 47 -47.575 47 -54.375 47 C-54.4059375 43.0709375 -54.4059375 43.0709375 -54.4375 39.0625 C-54.446604 38.2362915 -54.45570801 37.41008301 -54.46508789 36.55883789 C-54.47223945 34.70566241 -54.4252852 32.85250692 -54.375 31 C-53.375 30 -53.375 30 -50.25 29.8671875 C-48.97125 29.86976563 -47.6925 29.87234375 -46.375 29.875 C-45.09625 29.87242187 -43.8175 29.86984375 -42.5 29.8671875 C-39.375 30 -39.375 30 -38.375 31 C-38.37242187 30.11699219 -38.36984375 29.23398438 -38.3671875 28.32421875 C-38.08033781 19.42231664 -36.31803041 13.40698747 -31.375 6 C-30.715 6 -30.055 6 -29.375 6 C-29.045 5.01 -28.715 4.02 -28.375 3 C-20.04647413 -3.31757839 -9.47511867 -4.23356366 0 0 Z M-24.25 10.5625 C-25.58043609 11.95827079 -25.58043609 11.95827079 -25.375 14 C-26.035 14 -26.695 14 -27.375 14 C-30.31897288 21.7629761 -30.72437193 28.74447081 -30.375 37 C-30.045 37 -29.715 37 -29.375 37 C-29.375 34.69 -29.375 32.38 -29.375 30 C-28.69993408 30.16298584 -28.02486816 30.32597168 -27.3293457 30.49389648 C-23.87166419 31.08622553 -20.61401151 31.1120947 -17.10546875 31.09765625 C-16.08396477 31.09553383 -16.08396477 31.09553383 -15.04182434 31.09336853 C-12.88200353 31.08780298 -10.72228911 31.07525703 -8.5625 31.0625 C-7.09179838 31.05748054 -5.62109512 31.05291841 -4.15039062 31.04882812 C-0.5585596 31.03784488 3.0332098 31.02060422 6.625 31 C6.67949838 29.27119018 6.71801688 27.54187288 6.75 25.8125 C6.77320313 24.84957031 6.79640625 23.88664062 6.8203125 22.89453125 C6.39809763 16.63730687 3.26469009 12.30972883 -1.375 8.25 C-8.64400898 3.70686939 -17.92113957 5.28844964 -24.25 10.5625 Z M-38.375 34 C-37.375 38 -37.375 38 -37.375 38 Z " fill="#F30D19" transform="translate(166.375,135)"/>
<path d="M0 0 C1.60488281 0.01450195 1.60488281 0.01450195 3.2421875 0.02929688 C4.35335937 0.05443359 5.46453125 0.07957031 6.609375 0.10546875 C8.29933594 0.12577148 8.29933594 0.12577148 10.0234375 0.14648438 C12.80256764 0.1818123 15.58072863 0.23114355 18.359375 0.29296875 C18.359375 4.49160645 16.14920576 6.41424632 13.359375 9.29296875 C11.54226389 10.92579737 9.68467958 12.50339092 7.8203125 14.08203125 C3.95673527 17.5531181 0.35780502 21.28918761 -3.24804688 25.02563477 C-4.67618625 26.48427353 -6.15465248 27.89329208 -7.640625 29.29296875 C-8.300625 29.29296875 -8.960625 29.29296875 -9.640625 29.29296875 C-9.640625 30.28296875 -9.640625 31.27296875 -9.640625 32.29296875 C-8.650625 32.62296875 -7.660625 32.95296875 -6.640625 33.29296875 C-5.25810252 35.25928749 -3.93340195 37.26651729 -2.640625 39.29296875 C-0.93877552 41.56051299 0.83771958 43.76721836 2.609375 45.98046875 C6.6901558 51.12068956 10.61365573 56.3412648 14.43359375 61.6796875 C17.121584 65.32728481 19.99320291 68.81439652 22.890625 72.296875 C24.359375 74.29296875 24.359375 74.29296875 24.359375 76.29296875 C20.46411001 76.46760415 16.5698531 76.57393367 12.671875 76.66796875 C11.56908203 76.71824219 10.46628906 76.76851563 9.33007812 76.8203125 C1.34020228 76.96514409 1.34020228 76.96514409 -1.52587891 75.00097656 C-3.35543006 72.87779374 -4.640625 71.16219853 -4.640625 68.29296875 C-5.300625 68.29296875 -5.960625 68.29296875 -6.640625 68.29296875 C-6.970625 67.30296875 -7.300625 66.31296875 -7.640625 65.29296875 C-8.61034101 64.26357531 -9.61333448 63.26491226 -10.640625 62.29296875 C-11.52243819 61.235487 -12.3867208 60.16318008 -13.234375 59.078125 C-13.70746094 58.47419922 -14.18054688 57.87027344 -14.66796875 57.24804688 C-15.39693359 56.3112207 -15.39693359 56.3112207 -16.140625 55.35546875 C-16.86958984 54.42444336 -16.86958984 54.42444336 -17.61328125 53.47460938 C-19.98753753 50.43724338 -22.3435239 47.38939895 -24.640625 44.29296875 C-26.74043796 44.73295918 -26.74043796 44.73295918 -28.640625 46.29296875 C-28.97793516 48.89420747 -29.09651425 51.19207621 -29.078125 53.79296875 C-29.25428793 60.73425585 -30.20994159 66.64576822 -34.640625 72.29296875 C-36.125625 72.78796875 -36.125625 72.78796875 -37.640625 73.29296875 C-37.640625 73.95296875 -37.640625 74.61296875 -37.640625 75.29296875 C-42.84955304 77.29640261 -49.5392595 79.63582804 -54.9140625 77.30859375 C-55.48382813 76.9734375 -56.05359375 76.63828125 -56.640625 76.29296875 C-55.30729167 74.95963542 -53.97395833 73.62630208 -52.640625 72.29296875 C-51.939375 71.55046875 -51.238125 70.80796875 -50.515625 70.04296875 C-48.640625 68.29296875 -48.640625 68.29296875 -46.640625 68.29296875 C-44.59724764 62.92107103 -43.52878293 57.90668123 -43.7109375 52.15625 C-44.13677909 35.65776584 -44.13677909 35.65776584 -37.66723633 28.76293945 C-29.71488562 21.29296875 -29.71488562 21.29296875 -26.640625 21.29296875 C-25.980625 19.97296875 -25.320625 18.65296875 -24.640625 17.29296875 C-23.980625 17.29296875 -23.320625 17.29296875 -22.640625 17.29296875 C-21.980625 15.97296875 -21.320625 14.65296875 -20.640625 13.29296875 C-19.980625 13.29296875 -19.320625 13.29296875 -18.640625 13.29296875 C-18.310625 12.30296875 -17.980625 11.31296875 -17.640625 10.29296875 C-15.93359375 8.57421875 -15.93359375 8.57421875 -13.828125 6.79296875 C-13.14105469 6.20515625 -12.45398438 5.61734375 -11.74609375 5.01171875 C-11.05128906 4.44453125 -10.35648438 3.87734375 -9.640625 3.29296875 C-9.0535376 2.76856201 -8.4664502 2.24415527 -7.86157227 1.70385742 C-5.04923495 -0.08272028 -3.31244848 -0.05285822 0 0 Z " fill="#F00D19" transform="translate(198.640625,186.70703125)"/>
<path d="M0 0 C3.96 0 7.92 0 12 0 C12.33 7.59 12.66 15.18 13 23 C13.66 23 14.32 23 15 23 C15.33 21.68 15.66 20.36 16 19 C16.66 19 17.32 19 18 19 C18.66 17.68 19.32 16.36 20 15 C24.95 15 29.9 15 35 15 C33.88641178 19.45435288 32.37021376 21.28031048 29.4375 24.75 C28.61121094 25.73484375 27.78492188 26.7196875 26.93359375 27.734375 C26.29550781 28.48203125 25.65742188 29.2296875 25 30 C26.24008219 32.58852107 27.49147214 35.17046417 28.75 37.75 C29.09804688 38.47960937 29.44609375 39.20921875 29.8046875 39.9609375 C30.15273438 40.66992188 30.50078125 41.37890625 30.859375 42.109375 C31.17358398 42.75874023 31.48779297 43.40810547 31.81152344 44.07714844 C33.22928908 46.53558287 33.22928908 46.53558287 37 50 C37.33 38.45 37.66 26.9 38 15 C42.29 15 46.58 15 51 15 C51 27.87 51 40.74 51 54 C30.75 55.125 30.75 55.125 23 55 C20.36 50.05 17.72 45.1 15 40 C14.01 40.495 14.01 40.495 13 41 C13 44.96 13 48.92 13 53 C9.30628427 54.84685787 8.17241362 55.25768025 4.3125 55.1875 C3.52488281 55.18105469 2.73726563 55.17460937 1.92578125 55.16796875 C0 55 0 55 -1 54 C-1.06404076 52.3110126 -1.05701505 50.61927604 -1.02172852 48.92944336 C-1.00163223 47.84839828 -0.98153595 46.76735321 -0.96083069 45.65354919 C-0.93379562 44.4775264 -0.90676056 43.3015036 -0.87890625 42.08984375 C-0.85529526 40.89267227 -0.83168427 39.69550079 -0.80735779 38.46205139 C-0.73049355 34.62042037 -0.64656754 30.77897951 -0.5625 26.9375 C-0.50930209 24.34050425 -0.45656157 21.74349908 -0.40429688 19.14648438 C-0.27484772 12.76420141 -0.13906307 6.38208044 0 0 Z " fill="#F30D19" transform="translate(408,177)"/>
<path d="M0 0 C3.20145902 1.97737175 5.48371144 4.4594849 6.72827148 8.05566406 C7.25950667 11.07765671 7.23611313 13.97870723 7.22265625 17.046875 C7.21943359 18.34238281 7.21621094 19.63789063 7.21289062 20.97265625 C7.20453598 22.33593817 7.19607104 23.69921942 7.1875 25.0625 C7.18248168 26.44140465 7.17791935 27.82031104 7.17382812 29.19921875 C7.16204093 32.57035659 7.14558635 35.94140628 7.125 39.3125 C4.00076613 40.16377868 1.66597294 40.3323876 -1.5625 39.9375 C-2.35011719 39.84726563 -3.13773437 39.75703125 -3.94921875 39.6640625 C-5.875 39.3125 -5.875 39.3125 -6.875 38.3125 C-7.03306531 36.38771187 -7.126135 34.4575079 -7.19140625 32.52734375 C-7.23330078 31.35751953 -7.27519531 30.18769531 -7.31835938 28.98242188 C-7.35767578 27.75072266 -7.39699219 26.51902344 -7.4375 25.25 C-7.48068359 24.01443359 -7.52386719 22.77886719 -7.56835938 21.50585938 C-7.67484198 18.44152665 -7.77685424 15.37710927 -7.875 12.3125 C-11.22958155 11.54727199 -11.22958155 11.54727199 -14.875 11.3125 C-16.69851096 12.36386703 -16.69851096 12.36386703 -17.875 14.3125 C-18.38045868 17.01734875 -18.38045868 17.01734875 -18.38671875 20.07421875 C-18.42216797 21.19248047 -18.45761719 22.31074219 -18.49414062 23.46289062 C-18.52797852 25.21375977 -18.52797852 25.21375977 -18.5625 27 C-18.59666016 28.17884766 -18.63082031 29.35769531 -18.66601562 30.57226562 C-18.74857925 33.48558225 -18.81770322 36.39859466 -18.875 39.3125 C-21.875 40.3125 -21.875 40.3125 -32.875 39.3125 C-32.875 26.4425 -32.875 13.5725 -32.875 0.3125 C-27.54166667 0.3125 -22.20833333 0.3125 -16.875 0.3125 C-16.25496094 0.15136719 -15.63492187 -0.00976562 -14.99609375 -0.17578125 C-10.12990363 -1.34976082 -4.8439119 -1.15832676 0 0 Z " fill="#E90E1A" transform="translate(323.875,191.6875)"/>
<path d="M0 0 C1.10085938 -0.01417969 2.20171875 -0.02835938 3.3359375 -0.04296875 C8.20444548 0.29817373 11.58281223 1.37690951 15.4375 4.375 C18.03172124 7.71042731 18.37989645 10.02073968 18.625 14.1875 C15.94555615 15.52722193 14.09901369 15.17229055 11.125 14.9375 C10.1453125 14.87046875 9.165625 14.8034375 8.15625 14.734375 C5.625 14.1875 5.625 14.1875 3.625 11.1875 C0.04142759 10.93734127 0.04142759 10.93734127 -3.375 11.1875 C0.06488794 14.62738794 4.54125135 15.17971276 9.1875 16.0625 C13.1994258 16.91494966 15.6742224 18.2367224 18.625 21.1875 C20.36336852 24.66423705 20.07936319 28.38620798 19.625 32.1875 C17.20297043 37.2178691 14.73326259 39.12409301 9.625 41.1875 C6.82111884 41.62124182 4.08347965 41.66479342 1.25 41.625 C0.49630127 41.61670166 -0.25739746 41.60840332 -1.03393555 41.59985352 C-6.44658553 41.43490886 -11.23880306 41.02267991 -15.375 37.1875 C-17.86331743 34.03228481 -19.375 31.30184736 -19.375 27.1875 C-17.27405026 26.91176908 -15.16892365 26.66771024 -13.0625 26.4375 C-11.89074219 26.29828125 -10.71898437 26.1590625 -9.51171875 26.015625 C-6.375 26.1875 -6.375 26.1875 -4.64453125 28.11328125 C-4.22558594 28.79777344 -3.80664062 29.48226562 -3.375 30.1875 C-0.42138827 31.26325878 -0.42138827 31.26325878 2.625 31.1875 C4.52458081 29.87431738 4.52458081 29.87431738 5.625 28.1875 C2.65539305 26.20776203 1.34180218 25.8362388 -2.0625 25.3125 C-6.85864265 24.41366214 -11.420849 23.15311325 -15.375 20.1875 C-17.68479702 16.49332952 -17.75469588 13.51603305 -17.375 9.1875 C-15.70460956 5.51264103 -13.82618836 3.27912931 -10.375 1.1875 C-6.92202263 0.05729296 -3.61638023 0.02107448 0 0 Z " fill="#E40F1A" transform="translate(372.375,190.8125)"/>
<path d="M0 0 C3.40952867 2.51655687 4.63102388 4.91490139 5.625 8.9375 C6.03411688 13.8806251 5.99821717 18.79305051 5.9375 23.75 C5.93960699 25.09830957 5.94285246 26.44661788 5.94726562 27.79492188 C5.89215163 37.67034837 5.89215163 37.67034837 3.625 39.9375 C-1.57466951 40.27296255 -3.62198333 40.31400833 -8.375 37.9375 C-8.375 29.0275 -8.375 20.1175 -8.375 10.9375 C-10.685 10.9375 -12.995 10.9375 -15.375 10.9375 C-17.63370108 14.32555161 -17.66759413 15.71100741 -17.7890625 19.69921875 C-17.84707031 21.37661133 -17.84707031 21.37661133 -17.90625 23.08789062 C-17.9371875 24.25513672 -17.968125 25.42238281 -18 26.625 C-18.05800781 28.39327148 -18.05800781 28.39327148 -18.1171875 30.19726562 C-18.21154391 33.11051977 -18.29713161 36.02376607 -18.375 38.9375 C-22.45730666 39.82434593 -26.18721687 40.09856858 -30.375 39.9375 C-31.375 38.9375 -31.375 38.9375 -31.48852539 35.24389648 C-31.48836624 33.59878708 -31.48266988 31.95367269 -31.47265625 30.30859375 C-31.4712413 29.44436295 -31.46982635 28.58013214 -31.46836853 27.68971252 C-31.46275239 24.91810708 -31.45019719 22.1465812 -31.4375 19.375 C-31.43248708 17.5006522 -31.42792381 15.62630315 -31.42382812 13.75195312 C-31.41277772 9.14710456 -31.3955023 4.54231579 -31.375 -0.0625 C-26.375 -0.0625 -21.375 -0.0625 -16.375 -0.0625 C-15.74335938 -0.22234375 -15.11171875 -0.3821875 -14.4609375 -0.546875 C-9.5428018 -1.76259394 -4.80453462 -1.51253868 0 0 Z " fill="#E60E1A" transform="translate(494.375,192.0625)"/>
<path d="M0 0 C7.10382506 4.08903101 12.25899577 10.11331925 14.625 18 C15.13253815 21.99497848 15.43348864 25.97826143 15.625 30 C17.605 30.33 19.585 30.66 21.625 31 C21.625 31.33 21.625 31.66 21.625 32 C19.645 32 17.665 32 15.625 32 C15.686875 33.11375 15.74875 34.2275 15.8125 35.375 C15.7196875 37.169375 15.7196875 37.169375 15.625 39 C12.40286243 41.14809171 11.34724599 41.29386153 7.625 41 C6.625 40 6.625 40 6.52734375 38.15234375 C6.55989583 36.1015625 6.59244792 34.05078125 6.625 32 C5.32296631 32.01571045 5.32296631 32.01571045 3.99462891 32.03173828 C0.77800472 32.06579716 -2.43852767 32.09088767 -5.65527344 32.10986328 C-7.04820781 32.11992877 -8.44112102 32.13358234 -9.83398438 32.15087891 C-11.8345436 32.1751022 -13.83525615 32.18540814 -15.8359375 32.1953125 C-17.04040527 32.20578613 -18.24487305 32.21625977 -19.48583984 32.22705078 C-22.375 32 -22.375 32 -24.375 30 C-14.475 30 -4.575 30 5.625 30 C6.13470314 19.71574124 6.13470314 19.71574124 1.125 12.3125 C0.3 11.549375 -0.525 10.78625 -1.375 10 C-2.035 9.34 -2.695 8.68 -3.375 8 C-8.79920576 6.21481836 -14.43125583 6.28009475 -19.75 8.25 C-22.32364841 9.9657656 -23.64162068 11.48659999 -25.375 14 C-26.035 14 -26.695 14 -27.375 14 C-28.56588986 19.38027025 -29.6669519 24.45291384 -29.375 30 C-27.89 30.495 -27.89 30.495 -26.375 31 C-27.035 31 -27.695 31 -28.375 31 C-28.354375 32.093125 -28.33375 33.18625 -28.3125 34.3125 C-28.375 38 -28.375 38 -29.375 41 C-30.035 41 -30.695 41 -31.375 41 C-31.375 41.66 -31.375 42.32 -31.375 43 C-33.96594622 42.64987213 -35.9524211 42.26229035 -38.1875 40.875 C-39.375 39 -39.375 39 -39.375 32 C-43.995 32 -48.615 32 -53.375 32 C-53.375 36.62 -53.375 41.24 -53.375 46 C-47.105 46 -40.835 46 -34.375 46 C-34.375 46.33 -34.375 46.66 -34.375 47 C-40.975 47 -47.575 47 -54.375 47 C-54.395625 44.380625 -54.41625 41.76125 -54.4375 39.0625 C-54.446604 38.2362915 -54.45570801 37.41008301 -54.46508789 36.55883789 C-54.47223945 34.70566241 -54.4252852 32.85250692 -54.375 31 C-53.375 30 -53.375 30 -50.25 29.8671875 C-48.97125 29.86976563 -47.6925 29.87234375 -46.375 29.875 C-45.09625 29.87242187 -43.8175 29.86984375 -42.5 29.8671875 C-39.375 30 -39.375 30 -38.375 31 C-38.37242187 30.11699219 -38.36984375 29.23398438 -38.3671875 28.32421875 C-38.08033781 19.42231664 -36.31803041 13.40698747 -31.375 6 C-30.715 6 -30.055 6 -29.375 6 C-29.045 5.01 -28.715 4.02 -28.375 3 C-20.04647413 -3.31757839 -9.47511867 -4.23356366 0 0 Z M-38.375 34 C-37.375 38 -37.375 38 -37.375 38 Z " fill="#E8101D" transform="translate(166.375,135)"/>
<path d="M0 0 C0.049623 5.71084339 0.08582503 11.42155985 0.10986328 17.13256836 C0.1198898 19.07334582 0.13351443 21.0141083 0.15087891 22.95483398 C0.17527489 25.75247916 0.18651681 28.54992371 0.1953125 31.34765625 C0.20563507 32.2083522 0.21595764 33.06904816 0.22659302 33.95582581 C0.22768724 39.89783482 -0.43054978 44.86109955 -3.125 50.25 C-7.0413038 53.90521688 -11.70141354 54.91755007 -16.9375 55.25 C-20 55 -20 55 -21 54 C-21.07205511 52.31391034 -21.08386068 50.62499341 -21.0625 48.9375 C-21.05347656 48.01839844 -21.04445312 47.09929687 -21.03515625 46.15234375 C-21.02355469 45.44207031 -21.01195312 44.73179687 -21 44 C-18.03 43.505 -18.03 43.505 -15 43 C-14.67 28.81 -14.34 14.62 -14 0 C-8.42654907 -0.79620728 -5.2947172 -0.97249908 0 0 Z " fill="#E10E18" transform="translate(267,192)"/>
<path d="M0 0 C4.29 0 8.58 0 13 0 C13 12.87 13 25.74 13 39 C3 40 3 40 0 39 C0 26.13 0 13.26 0 0 Z " fill="#D50E18" transform="translate(504,192)"/>
<path d="M0 0 C0.33 12.54 0.66 25.08 1 38 C-4 40 -4 40 -13 39 C-13 26.13 -13 13.26 -13 0 C-9 -1 -9 -1 0 0 Z " fill="#F10E1A" transform="translate(286,192)"/>
<path d="M0 0 C0 12.87 0 25.74 0 39 C-2 40 -2 40 -13 39 C-13 26.13 -13 13.26 -13 0 C-2 -1 -2 -1 0 0 Z " fill="#E0101B" transform="translate(350,192)"/>
<path d="M0 0 C4.80734552 0.04120582 4.80734552 0.04120582 7.75 2.625 C10.07902825 7.0805323 10.30881159 10.65694251 10.28515625 15.671875 C10.28193359 16.87714844 10.27871094 18.08242187 10.27539062 19.32421875 C10.26701172 20.57847656 10.25863281 21.83273438 10.25 23.125 C10.24548828 24.39472656 10.24097656 25.66445312 10.23632812 26.97265625 C10.22454556 30.10681836 10.20809416 33.24088541 10.1875 36.375 C7.2175 36.375 4.2475 36.375 1.1875 36.375 C0.8575 27.465 0.5275 18.555 0.1875 9.375 C-3.4425 9.045 -7.0725 8.715 -10.8125 8.375 C-10.8125 9.035 -10.8125 9.695 -10.8125 10.375 C-12.7925 11.365 -12.7925 11.365 -14.8125 12.375 C-15.5 10.0625 -15.5 10.0625 -15.8125 7.375 C-13.64177049 3.84756454 -9.49503521 2.87529212 -5.8125 1.375 C-4.16155878 -0.27594122 -2.26764063 0.08632307 0 0 Z " fill="#F40D19" transform="translate(487.8125,192.625)"/>
<path d="M0 0 C3.3 0 6.6 0 10 0 C10.66 1.32 11.32 2.64 12 4 C12.78375 3.814375 13.5675 3.62875 14.375 3.4375 C17 3 17 3 19 4 C19 4.66 19 5.32 19 6 C17.02 6.33 15.04 6.66 13 7 C10.51655646 12.8350828 10.55938873 18.63651458 10.375 24.875 C10.31699219 26.47988281 10.31699219 26.47988281 10.2578125 28.1171875 C10.16397914 30.74452155 10.08091978 33.37223652 10 36 C6.7 36 3.4 36 0 36 C0 24.12 0 12.24 0 0 Z " fill="#F50D19" transform="translate(293,193)"/>
<path d="M0 0 C0.33 0 0.66 0 1 0 C1.14498671 5.68841489 1.28727029 11.37688929 1.42724609 17.06542969 C1.47503895 18.99318179 1.52352016 20.92091697 1.57275391 22.84863281 C1.7137086 28.37750889 1.84286302 33.906397 1.95019531 39.43603516 C1.98241291 41.09460982 2.01677383 42.75314483 2.05371094 44.41162109 C2.09921341 46.58691771 2.13025756 48.76189398 2.15625 50.9375 C2.18428711 52.74541016 2.18428711 52.74541016 2.21289062 54.58984375 C1.83335212 60.66942384 -0.14226268 65.67421682 -3 71 C-2.34 71.33 -1.68 71.66 -1 72 C-1 73.32 -1 74.64 -1 76 C-0.01 76.495 -0.01 76.495 1 77 C1.33 77.33 1.66 77.66 2 78 C2.495 76.515 2.495 76.515 3 75 C3 75.66 3 76.32 3 77 C4.65 77.33 6.3 77.66 8 78 C5.38038054 81.39009578 2.07480769 82.33321329 -2 83 C-12.62062568 83.93050799 -21.52791843 81.55964781 -30 75 C-32.5 72.1875 -32.5 72.1875 -34 70 C-33.505 69.01 -33.505 69.01 -33 68 C-31.68 68.66 -30.36 69.32 -29 70 C-29 70.99 -29 71.98 -29 73 C-20.47534997 74.03815092 -20.47534997 74.03815092 -12 73 C-11.505 71.515 -11.505 71.515 -11 70 C-10.01 70 -9.02 70 -8 70 C-8 69.01 -8 68.02 -8 67 C-9.32 66.34 -10.64 65.68 -12 65 C-10.02 65 -8.04 65 -6 65 C-5.505 65.99 -5.505 65.99 -5 67 C-1.94271074 61.28419833 -0.89646886 56.73367185 -0.79467773 50.29174805 C-0.77473251 49.17096359 -0.75478729 48.05017914 -0.73423767 46.89543152 C-0.71752518 45.6963063 -0.70081268 44.49718109 -0.68359375 43.26171875 C-0.66281265 42.02581497 -0.64203156 40.78991119 -0.62062073 39.51655579 C-0.56640069 36.24347874 -0.51612422 32.9703726 -0.46777344 29.69720459 C-0.4173843 26.3521174 -0.36171184 23.00712276 -0.30664062 19.66210938 C-0.19964057 13.10814229 -0.09784108 6.55410987 0 0 Z " fill="#CE0C17" transform="translate(132,182)"/>
<path d="M0 0 C0 0.99 0 1.98 0 3 C0.66 3 1.32 3 2 3 C2.33 3.99 2.66 4.98 3 6 C2.34 6 1.68 6 1 6 C1 6.99 1 7.98 1 9 C0.34 9 -0.32 9 -1 9 C-0.97679687 10.22976562 -0.95359375 11.45953125 -0.9296875 12.7265625 C-0.91091961 14.3593689 -0.89272051 15.9921819 -0.875 17.625 C-0.85824219 18.43324219 -0.84148437 19.24148437 -0.82421875 20.07421875 C-0.78579014 24.80093815 -1.17262906 28.55387702 -3 33 C-3.66 33 -4.32 33 -5 33 C-5 33.66 -5 34.32 -5 35 C-7.97 35.495 -7.97 35.495 -11 36 C-11 36.66 -11 37.32 -11 38 C-12.65 38 -14.3 38 -16 38 C-15 35 -15 35 -12.9375 33.8125 C-12.298125 33.544375 -11.65875 33.27625 -11 33 C-11.33 32.67 -11.66 32.34 -12 32 C-12.01693598 29.62192202 -11.97130138 27.27689337 -11.87890625 24.90234375 C-11.85529526 24.19348526 -11.83168427 23.48462677 -11.80735779 22.75428772 C-11.73055354 20.48182979 -11.64660225 18.20969843 -11.5625 15.9375 C-11.50929604 14.40040681 -11.45655554 12.8632975 -11.40429688 11.32617188 C-11.27491595 7.55057297 -11.1391231 3.77525197 -11 0 C-7.08263419 -1.1700097 -4.02040985 -0.69584017 0 0 Z " fill="#F20C19" transform="translate(168,223)"/>
<path d="M0 0 C3.3 0 6.6 0 10 0 C10 12.21 10 24.42 10 37 C6.7 37 3.4 37 0 37 C0 24.79 0 12.58 0 0 Z " fill="#F10E1A" transform="translate(447,193)"/>
<path d="M0 0 C7.26677426 6.48117704 8.30176007 12.27322465 8.88671875 21.62109375 C8.94279297 22.79865234 8.94279297 22.79865234 9 24 C10.98 24.33 12.96 24.66 15 25 C15 25.33 15 25.66 15 26 C13.02 26 11.04 26 9 26 C9.061875 27.11375 9.12375 28.2275 9.1875 29.375 C9.0946875 31.169375 9.0946875 31.169375 9 33 C5.77786243 35.14809171 4.72224599 35.29386153 1 35 C0 34 0 34 -0.09765625 32.15234375 C-0.06510417 30.1015625 -0.03255208 28.05078125 0 26 C-1.30203369 26.01571045 -1.30203369 26.01571045 -2.63037109 26.03173828 C-5.84699528 26.06579716 -9.06352767 26.09088767 -12.28027344 26.10986328 C-13.67320781 26.11992877 -15.06612102 26.13358234 -16.45898438 26.15087891 C-18.4595436 26.1751022 -20.46025615 26.18540814 -22.4609375 26.1953125 C-23.66540527 26.20578613 -24.86987305 26.21625977 -26.11083984 26.22705078 C-29 26 -29 26 -31 24 C-21.1 24 -11.2 24 -1 24 C-1 14.28715711 -1.26072986 11.53974795 -6 4 C-3.03 4.495 -3.03 4.495 0 5 C0 3.35 0 1.7 0 0 Z " fill="#930E13" transform="translate(173,141)"/>
<path d="M0 0 C1.0828125 -0.00515625 2.165625 -0.0103125 3.28125 -0.015625 C8.0508106 0.37797952 11.52683388 1.60122259 15.5 4.25 C15.90843923 6.96203652 15.63336867 9.4937142 15.5 12.25 C9.54296875 12.54296875 9.54296875 12.54296875 7.5 12.25 C7.025625 11.755 6.55125 11.26 6.0625 10.75 C4.5581996 9.00405217 4.5581996 9.00405217 2.01953125 8.95703125 C0.67955078 9.00923828 0.67955078 9.00923828 -0.6875 9.0625 C-1.58855469 9.08957031 -2.48960937 9.11664063 -3.41796875 9.14453125 C-4.10503906 9.17933594 -4.79210937 9.21414062 -5.5 9.25 C-5.83 10.9 -6.16 12.55 -6.5 14.25 C-7.49 13.92 -8.48 13.59 -9.5 13.25 C-9.83 14.9 -10.16 16.55 -10.5 18.25 C-11.49 18.25 -12.48 18.25 -13.5 18.25 C-13.5 17.26 -13.5 16.27 -13.5 15.25 C-14.16 15.25 -14.82 15.25 -15.5 15.25 C-15.87090227 10.18100236 -15.0485572 6.66749914 -12.5 2.25 C-8.28091088 0.40186874 -4.57630949 -0.02179195 0 0 Z " fill="#F10F1B" transform="translate(372.5,190.75)"/>
<path d="M0 0 C0.33 0 0.66 0 1 0 C1.33 12.21 1.66 24.42 2 37 C5.3 37 8.6 37 12 37 C11.96519531 35.40929687 11.93039062 33.81859375 11.89453125 32.1796875 C11.86638547 30.07813559 11.83908615 27.97657222 11.8125 25.875 C11.78736328 24.82828125 11.76222656 23.7815625 11.73632812 22.703125 C11.68166509 16.94528536 11.79323659 12.86485368 15 8 C16.41493551 7.89115881 17.83232943 7.81402383 19.25 7.75 C20.03890625 7.70359375 20.8278125 7.6571875 21.640625 7.609375 C24.92392141 8.15296712 25.93781097 9.42709194 28 12 C28.45410156 14.74902344 28.45410156 14.74902344 28.390625 17.859375 C28.37128906 19.53193359 28.37128906 19.53193359 28.3515625 21.23828125 C28.31804687 22.39714844 28.28453125 23.55601562 28.25 24.75 C28.23195313 25.92433594 28.21390625 27.09867188 28.1953125 28.30859375 C28.1481912 31.2065534 28.08241305 34.10286418 28 37 C31.3 37 34.6 37 38 37 C38 27.43 38 17.86 38 8 C37.34 8 36.68 8 36 8 C35.505 5.03 35.505 5.03 35 2 C37.88392081 4.6048317 39.36611907 6.16799488 40 10 C40.08173345 12.24353937 40.10750277 14.48936892 40.09765625 16.734375 C40.09443359 18.02988281 40.09121094 19.32539063 40.08789062 20.66015625 C40.07953598 22.02343817 40.07107104 23.38671942 40.0625 24.75 C40.05748168 26.12890465 40.05291935 27.50781104 40.04882812 28.88671875 C40.03704093 32.25785659 40.02058635 35.62890628 40 39 C36.87576613 39.85127868 34.54097294 40.0198876 31.3125 39.625 C30.52488281 39.53476563 29.73726563 39.44453125 28.92578125 39.3515625 C27 39 27 39 26 38 C25.84193469 36.07521187 25.748865 34.1450079 25.68359375 32.21484375 C25.64169922 31.04501953 25.59980469 29.87519531 25.55664062 28.66992188 C25.51732422 27.43822266 25.47800781 26.20652344 25.4375 24.9375 C25.39431641 23.70193359 25.35113281 22.46636719 25.30664062 21.19335938 C25.20015802 18.12902665 25.09814576 15.06460927 25 12 C21.64541845 11.23477199 21.64541845 11.23477199 18 11 C16.17648904 12.05136703 16.17648904 12.05136703 15 14 C14.49454132 16.70484875 14.49454132 16.70484875 14.48828125 19.76171875 C14.45283203 20.87998047 14.41738281 21.99824219 14.38085938 23.15039062 C14.34702148 24.90125977 14.34702148 24.90125977 14.3125 26.6875 C14.27833984 27.86634766 14.24417969 29.04519531 14.20898438 30.25976562 C14.12642075 33.17308225 14.05729678 36.08609466 14 39 C11 40 11 40 0 39 C0 26.13 0 13.26 0 0 Z " fill="#890C12" transform="translate(291,192)"/>
<path d="M0 0 C4.29 0 8.58 0 13 0 C13 12.87 13 25.74 13 39 C-7.25 40.125 -7.25 40.125 -15 40 C-16.19733988 37.88002166 -17.38298713 35.75486324 -18.5625 33.625 C-18.90474609 33.02171875 -19.24699219 32.4184375 -19.59960938 31.796875 C-20.46127095 30.23021759 -21.23718183 28.61709138 -22 27 C-21.67 26.34 -21.34 25.68 -21 25 C-18.20294175 26.39852912 -18.09085007 28.13651858 -17 31 C-16.34 31.99 -15.68 32.98 -15 34 C-15 34.99 -15 35.98 -15 37 C-11.7 37 -8.4 37 -5 37 C-5.66 36.01 -6.32 35.02 -7 34 C-7 33.01 -7 32.02 -7 31 C-7.99 31 -8.98 31 -10 31 C-10 31.99 -10 32.98 -10 34 C-10.66 34 -11.32 34 -12 34 C-11.835 33.4225 -11.67 32.845 -11.5 32.25 C-10.85537969 29.73335631 -10.85537969 29.73335631 -11 26 C-10.67 25.01 -10.34 24.02 -10 23 C-6.78119883 26.7935871 -4.3836813 30.65829477 -2 35 C-1.67 35 -1.34 35 -1 35 C-0.67 23.45 -0.34 11.9 0 0 Z M1 1 C1 13.21 1 25.42 1 38 C4.3 38 7.6 38 11 38 C11 25.79 11 13.58 11 1 C7.7 1 4.4 1 1 1 Z " fill="#9B0D14" transform="translate(446,192)"/>
<path d="M0 0 C4.95 0 9.9 0 15 0 C13.88641178 4.45435288 12.37021376 6.28031048 9.4375 9.75 C8.61121094 10.73484375 7.78492188 11.7196875 6.93359375 12.734375 C6.29550781 13.48203125 5.65742188 14.2296875 5 15 C5.495 15.94875 5.99 16.8975 6.5 17.875 C8 21 8 21 8 23 C7.34 23 6.68 23 6 23 C5.73445313 22.43410156 5.46890625 21.86820313 5.1953125 21.28515625 C4.66550781 20.18494141 4.66550781 20.18494141 4.125 19.0625 C3.77695312 18.33160156 3.42890625 17.60070312 3.0703125 16.84765625 C2.1315023 14.83667541 2.1315023 14.83667541 0 14 C-0.33 15.32 -0.66 16.64 -1 18 C-1.99 17.67 -2.98 17.34 -4 17 C-4.33 16.01 -4.66 15.02 -5 14 C-4.34 13.01 -3.68 12.02 -3 11 C-3 10.01 -3 9.02 -3 8 C-3.66 8 -4.32 8 -5 8 C-4.67 6.68 -4.34 5.36 -4 4 C-3.34 4 -2.68 4 -2 4 C-1.34 2.68 -0.68 1.36 0 0 Z " fill="#F50C16" transform="translate(428,192)"/>
<path d="M0 0 C0.33 0.66 0.66 1.32 1 2 C-0.98 2 -2.96 2 -5 2 C-4.99777939 2.58437836 -4.99555878 3.16875671 -4.99327087 3.77084351 C-4.97119612 9.83745718 -4.9560842 15.90405949 -4.94506836 21.97070312 C-4.94003074 24.23665836 -4.93320048 26.50261033 -4.92456055 28.76855469 C-4.91247004 32.02019047 -4.90676608 35.27178339 -4.90234375 38.5234375 C-4.89718246 39.54118256 -4.89202118 40.55892761 -4.88670349 41.60751343 C-4.88662796 42.54833771 -4.88655243 43.48916199 -4.88647461 44.45849609 C-4.884254 45.28900482 -4.88203339 46.11951355 -4.87974548 46.97518921 C-5 49 -5 49 -6 51 C-3.36 51 -0.72 51 2 51 C2 50.34 2 49.68 2 49 C2.66 49.33 3.32 49.66 4 50 C1.32708498 54.00937253 -1.4398874 54.810762 -6 56 C-9.9375 56.25 -9.9375 56.25 -13 56 C-14 55 -14 55 -14.09765625 52.71484375 C-14.08605469 51.79832031 -14.07445312 50.88179687 -14.0625 49.9375 C-14.05347656 49.01839844 -14.04445312 48.09929687 -14.03515625 47.15234375 C-14.02355469 46.44207031 -14.01195312 45.73179687 -14 45 C-11.03 44.505 -11.03 44.505 -8 44 C-7.67 29.81 -7.34 15.62 -7 1 C-3.535 0.505 -3.535 0.505 0 0 Z " fill="#DC111C" transform="translate(260,191)"/>
<path d="M0 0 C3 1 3 1 4.6875 3.9375 C6 7 6 7 6 9 C6.66 9.33 7.32 9.66 8 10 C8.8125 12.25 8.8125 12.25 9 15 C7.5625 17.8125 7.5625 17.8125 6 20 C6.66 20 7.32 20 8 20 C8 19.01 8 18.02 8 17 C8.99 17 9.98 17 11 17 C11.66 18.98 12.32 20.96 13 23 C9.7 23 6.4 23 3 23 C1.03810791 19.3321148 -0.39301257 16.12751449 -1 12 C-1.99 11.67 -2.98 11.34 -4 11 C-4 10.34 -4 9.68 -4 9 C-4.66 9 -5.32 9 -6 9 C-6 7.02 -6 5.04 -6 3 C-6.66 3 -7.32 3 -8 3 C-7.67 2.34 -7.34 1.68 -7 1 C-2.125 1.875 -2.125 1.875 -1 3 C-0.67 2.01 -0.34 1.02 0 0 Z " fill="#F30D19" transform="translate(428,206)"/>
<path d="M0 0 C0.66 0.33 1.32 0.66 2 1 C1.01 2.485 1.01 2.485 0 4 C-0.66 4 -1.32 4 -2 4 C-3.19088986 9.38027025 -4.2919519 14.45291384 -4 20 C-3.01 20.33 -2.02 20.66 -1 21 C-1.66 21 -2.32 21 -3 21 C-2.979375 22.093125 -2.95875 23.18625 -2.9375 24.3125 C-3 28 -3 28 -4 31 C-4.66 31 -5.32 31 -6 31 C-6 31.66 -6 32.32 -6 33 C-8.59094622 32.64987213 -10.5774211 32.26229035 -12.8125 30.875 C-14 29 -14 29 -14 22 C-18.62 22 -23.24 22 -28 22 C-28 26.62 -28 31.24 -28 36 C-21.73 36 -15.46 36 -9 36 C-9 36.33 -9 36.66 -9 37 C-15.6 37 -22.2 37 -29 37 C-29.020625 34.380625 -29.04125 31.76125 -29.0625 29.0625 C-29.071604 28.2362915 -29.08070801 27.41008301 -29.09008789 26.55883789 C-29.09723945 24.70566241 -29.0502852 22.85250692 -29 21 C-28 20 -28 20 -24.875 19.8671875 C-23.59625 19.86976563 -22.3175 19.87234375 -21 19.875 C-19.72125 19.87242187 -18.4425 19.86984375 -17.125 19.8671875 C-14 20 -14 20 -13 21 C-12.67 16.38 -12.34 11.76 -12 7 C-11.67 7 -11.34 7 -11 7 C-10.67 13.6 -10.34 20.2 -10 27 C-9.34 27.33 -8.68 27.66 -8 28 C-7.42318181 23.55025967 -6.93232015 19.17975016 -7 14.6875 C-7 11.80073451 -6.89934752 9.69804256 -6 7 C-5.34 7 -4.68 7 -4 7 C-4 5.68 -4 4.36 -4 3 C-3.01 3 -2.02 3 -1 3 C-0.67 2.01 -0.34 1.02 0 0 Z M-13 24 C-12 28 -12 28 -12 28 Z " fill="#9D0C11" transform="translate(141,145)"/>
<path d="M0 0 C1.60080151 4.00200378 0.29279692 7.04556236 -1 11 C-0.34 11 0.32 11 1 11 C1 11.99 1 12.98 1 14 C1.99 14 2.98 14 4 14 C4 12.35 4 10.7 4 9 C4.66 8.67 5.32 8.34 6 8 C6 8.66 6 9.32 6 10 C6.66 10 7.32 10 8 10 C7.979375 9.195625 7.95875 8.39125 7.9375 7.5625 C8 5 8 5 9 4 C10.62139437 3.87505384 12.24884122 3.82428376 13.875 3.8125 C14.75929688 3.79832031 15.64359375 3.78414062 16.5546875 3.76953125 C19 4 19 4 22 6 C22 6.66 22 7.32 22 8 C24.64 8 27.28 8 30 8 C30 5.69 30 3.38 30 1 C32.09749995 3.35968744 32.96905704 4.54616994 33.1875 7.75 C33.0946875 8.86375 33.0946875 8.86375 33 10 C30.32055615 11.33972193 28.47401369 10.98479055 25.5 10.75 C24.5203125 10.68296875 23.540625 10.6159375 22.53125 10.546875 C20 10 20 10 18 7 C14.41642759 6.74984127 14.41642759 6.74984127 11 7 C12.9254644 9.2236068 12.9254644 9.2236068 16 10 C16 10.66 16 11.32 16 12 C15.38125 12.061875 14.7625 12.12375 14.125 12.1875 C11.72238859 12.828919 11.72238859 12.828919 10.75 15.5625 C10.5025 16.366875 10.255 17.17125 10 18 C0.81034483 17.81034483 0.81034483 17.81034483 -2.125 14.875 C-3.57682022 10.10473355 -3.79645124 6.55971701 -1.5 2.0625 C-1.005 1.381875 -0.51 0.70125 0 0 Z " fill="#ED0F1B" transform="translate(358,195)"/>
<path d="M0 0 C5.66947938 -0.34016876 10.23795083 -0.51484582 15 3 C19.13631752 9.77923774 18.40711855 17.08784129 18.3125 24.8125 C18.31460699 26.16080957 18.31785246 27.50911788 18.32226562 28.85742188 C18.26715163 38.73284837 18.26715163 38.73284837 16 41 C10.80033049 41.33546255 8.75301667 41.37650833 4 39 C4 30.09 4 21.18 4 12 C3.34 11.67 2.68 11.34 2 11 C3.32 11 4.64 11 6 11 C7.3308911 13.66178221 7.11268993 15.68739396 7.09765625 18.6640625 C7.09443359 19.78554687 7.09121094 20.90703125 7.08789062 22.0625 C7.07951172 23.238125 7.07113281 24.41375 7.0625 25.625 C7.05798828 26.80835938 7.05347656 27.99171875 7.04882812 29.2109375 C7.03701467 32.14067507 7.02054258 35.07031272 7 38 C9.97 38 12.94 38 16 38 C15.88994608 33.60365896 15.75935538 29.20816021 15.625 24.8125 C15.5940625 23.56662109 15.563125 22.32074219 15.53125 21.03710938 C15.49257813 19.83505859 15.45390625 18.63300781 15.4140625 17.39453125 C15.36693115 15.73707886 15.36693115 15.73707886 15.31884766 14.04614258 C14.85382237 9.60347753 13.46324728 6.69487093 11 3 C8.35308332 2.19907746 8.35308332 2.19907746 5.375 1.8125 C3.87066406 1.57466797 3.87066406 1.57466797 2.3359375 1.33203125 C1.56507813 1.22246094 0.79421875 1.11289063 0 1 C0 0.67 0 0.34 0 0 Z " fill="#A9131C" transform="translate(482,191)"/>
<path d="M0 0 C2.64 0 5.28 0 8 0 C7.67 0.66 7.34 1.32 7 2 C4.525 1.505 4.525 1.505 2 1 C2.00666183 1.73978592 2.01332367 2.47957184 2.02018738 3.24177551 C2.08062296 10.25791941 2.12613778 17.27397118 2.15543652 24.29030323 C2.17100636 27.89636775 2.1920828 31.50221485 2.22631836 35.1081543 C2.25922567 38.59654017 2.27691805 42.08471864 2.28463173 45.57324791 C2.29276668 47.53334273 2.31613435 49.49335562 2.33988953 51.45332336 C2.34186275 62.08113966 1.18117194 71.01360872 -5.5 79.5390625 C-7 81 -7 81 -10 82 C-10.33 80.68 -10.66 79.36 -11 78 C-9.68 78.33 -8.36 78.66 -7 79 C-7 77.68 -7 76.36 -7 75 C-5.02 74.505 -5.02 74.505 -3 74 C-3 72.35 -3 70.7 -3 69 C-2.34 69 -1.68 69 -1 69 C-0.67 46.23 -0.34 23.46 0 0 Z " fill="#990E12" transform="translate(150,178)"/>
<path d="M0 0 C2 2 2 2 2.375 5.9375 C2.28694468 8.79152833 2.23484076 9.69940383 0.4375 12 C-2.98373035 13.40358168 -5.33851392 13.52306944 -9 13 C-11.5 10.875 -11.5 10.875 -13 8 C-13.0625 4.875 -13.0625 4.875 -12 2 C-8.07717717 -1.5766914 -4.98793859 -1.22345664 0 0 Z " fill="#EB121F" transform="translate(265,176)"/>
<path d="M0 0 C0 3.52032428 -0.70351351 4.4385343 -3 7 C-3.66 7 -4.32 7 -5 7 C-4.99476318 7.7206665 -4.98952637 8.44133301 -4.98413086 9.18383789 C-4.96323125 12.47671625 -4.95029869 15.76958059 -4.9375 19.0625 C-4.92912109 20.19623047 -4.92074219 21.32996094 -4.91210938 22.49804688 C-4.87384845 35.62154534 -4.87384845 35.62154534 -7 42 C-7.66 42 -8.32 42 -9 42 C-9 42.66 -9 43.32 -9 44 C-7.68 44.33 -6.36 44.66 -5 45 C-5 44.34 -5 43.68 -5 43 C-2.03 42.505 -2.03 42.505 1 42 C1 41.34 1 40.68 1 40 C1.66 40 2.32 40 3 40 C2.34 41.32 1.68 42.64 1 44 C0.34 44 -0.32 44 -1 44 C-1 44.66 -1 45.32 -1 46 C-6.20892804 48.00343386 -12.8986345 50.34285929 -18.2734375 48.015625 C-18.84320313 47.68046875 -19.41296875 47.3453125 -20 47 C-18.66666667 45.66666667 -17.33333333 44.33333333 -16 43 C-14.948125 41.88625 -14.948125 41.88625 -13.875 40.75 C-12 39 -12 39 -10 39 C-6.84283284 30.70002597 -6.59962244 22.57082814 -6.73071289 13.79443359 C-6.67518429 8.8881156 -6.52418523 5.90756621 -2.95703125 2.33203125 C-1.98121094 1.56246094 -1.00539062 0.79289063 0 0 Z M-6 39 C-5.34 39.66 -4.68 40.32 -4 41 C-4.99 40.67 -5.98 40.34 -7 40 C-6.67 39.67 -6.34 39.34 -6 39 Z " fill="#CA101C" transform="translate(162,216)"/>
<path d="M0 0 C1.5625 1.625 1.5625 1.625 2 4 C1.8125 7.625 1.8125 7.625 1 11 C-2.69486103 13.46324069 -4.63293092 13.38991688 -9 13 C-11.42194927 11.46609879 -11.88729401 10.30591626 -12.875 7.625 C-13.0376843 4.20862965 -12.02489572 2.69986096 -10 0 C-6.73784169 -1.63107916 -3.45081167 -0.92653929 0 0 Z " fill="#B30F17" transform="translate(285,176)"/>
<path d="M0 0 C1.625 2.8125 1.625 2.8125 2 6 C0.88483109 8.38964766 -0.13950458 10.13950458 -2 12 C-9.27765237 12.58690745 -9.27765237 12.58690745 -12 10.375 C-13.26498755 7.37065456 -13.34386442 5.23232558 -13 2 C-11 -1 -11 -1 -9.3125 -1.8125 C-5.74254993 -2.10195541 -3.28300208 -1.3983157 0 0 Z " fill="#D10F18" transform="translate(516,177)"/>
<path d="M0 0 C1.5 1.625 1.5 1.625 2 4 C1.55555556 10.44444444 1.55555556 10.44444444 -1 13 C-7.90410959 13.54794521 -7.90410959 13.54794521 -11 12 C-12.63609197 8.72781607 -12.77749189 5.56165332 -12 2 C-8.29255488 -1.70744512 -4.85867525 -1.37509677 0 0 Z " fill="#F10E1A" transform="translate(349,176)"/>
<path d="M0 0 C1.5 1.625 1.5 1.625 2 4 C1.8125 7.625 1.8125 7.625 1 11 C-2.69486103 13.46324069 -4.63293092 13.38991688 -9 13 C-11.42194927 11.46609879 -11.88729401 10.30591626 -12.875 7.625 C-13.03879238 4.18536009 -12.0904649 2.68774058 -10 0 C-6.21603308 -1.26132231 -3.85909105 -0.91214879 0 0 Z " fill="#EF0F1B" transform="translate(458,176)"/>
<path d="M0 0 C0.86625 0.01546875 1.7325 0.0309375 2.625 0.046875 C5 0.25 5 0.25 8 1.25 C8 1.91 8 2.57 8 3.25 C9.0725 3.37375 10.145 3.4975 11.25 3.625 C16.92 4.57 16.92 4.57 19 6.25 C19.75 9.375 19.75 9.375 20 12.25 C17 13.25 17 13.25 14.8125 12.3125 C14.214375 11.961875 13.61625 11.61125 13 11.25 C13 9.93 13 8.61 13 7.25 C11.02 7.25 9.04 7.25 7 7.25 C7 6.59 7 5.93 7 5.25 C1.39 5.91 -4.22 6.57 -10 7.25 C-7.30833388 1.86666775 -6.15826127 -0.18328159 0 0 Z " fill="#EC0E1B" transform="translate(154,133.75)"/>
<path d="M0 0 C2.81256281 -0.02684312 5.62487241 -0.04676188 8.4375 -0.0625 C9.23994141 -0.07087891 10.04238281 -0.07925781 10.86914062 -0.08789062 C12.91295221 -0.0965143 14.95683902 -0.0522815 17 0 C18.8099918 1.8099918 18.21588943 4.74463275 18.3125 7.1875 C18.68776856 12.79807256 19.34876054 15.77825437 23 20 C23.33 20.66 23.66 21.32 24 22 C22.35 22 20.7 22 19 22 C19 21.01 19 20.02 19 19 C18.34 19 17.68 19 17 19 C17 13.39 17 7.78 17 2 C12.38 2 7.76 2 3 2 C3.33 9.26 3.66 16.52 4 24 C0.41908736 20.41908736 0.0467967 15.94997306 -0.1953125 11.03515625 C-0.17210938 9.72417969 -0.14890625 8.41320312 -0.125 7.0625 C-0.11597656 6.37865234 -0.10695313 5.69480469 -0.09765625 4.99023438 C-0.07438958 3.32666713 -0.03853167 1.66328369 0 0 Z " fill="#970E14" transform="translate(94,225)"/>
<path d="M0 0 C2.88392081 2.6048317 4.36611907 4.16799488 5 8 C5.08173345 10.24353937 5.10750277 12.48936892 5.09765625 14.734375 C5.09443359 16.02988281 5.09121094 17.32539063 5.08789062 18.66015625 C5.07953598 20.02343817 5.07107104 21.38671942 5.0625 22.75 C5.05748168 24.12890465 5.05291935 25.50781104 5.04882812 26.88671875 C5.03704093 30.25785659 5.02058635 33.62890628 5 37 C1 38 1 38 -8 37 C-8 28.09 -8 19.18 -8 10 C-7.67 10 -7.34 10 -7 10 C-7 18.25 -7 26.5 -7 35 C-3.7 35 -0.4 35 3 35 C3 25.43 3 15.86 3 6 C2.34 6 1.68 6 1 6 C0.67 4.02 0.34 2.04 0 0 Z " fill="#AA151D" transform="translate(326,194)"/>
<path d="M0 0 C2.97 0.33 5.94 0.66 9 1 C9.33 13.54 9.66 26.08 10 39 C5 41 5 41 -4 40 C-4 27.13 -4 14.26 -4 1 C-3.67 1 -3.34 1 -3 1 C-2.67 13.21 -2.34 25.42 -2 38 C1.3 38 4.6 38 8 38 C8 26.12 8 14.24 8 2 C5.03 2 2.06 2 -1 2 C-0.67 1.34 -0.34 0.68 0 0 Z " fill="#971219" transform="translate(277,191)"/>
<path d="M0 0 C1.98 0 3.96 0 6 0 C6.33 0.66 6.66 1.32 7 2 C7.66 1.67 8.32 1.34 9 1 C8.67 2.32 8.34 3.64 8 5 C7.34 5 6.68 5 6 5 C5.34 6.32 4.68 7.64 4 9 C3.34 9 2.68 9 2 9 C2 9.66 2 10.32 2 11 C-2.455 11.495 -2.455 11.495 -7 12 C-7 12.66 -7 13.32 -7 14 C-10 15 -10 15 -11.90234375 14.1796875 C-16.03235755 11.53203949 -19.17728 9.11646666 -22 5 C-21.67 4.34 -21.34 3.68 -21 3 C-19.68 3.66 -18.36 4.32 -17 5 C-17 5.99 -17 6.98 -17 8 C-8.47534997 9.03815092 -8.47534997 9.03815092 0 8 C0.33 7.01 0.66 6.02 1 5 C1.99 5 2.98 5 4 5 C4 4.01 4 3.02 4 2 C2.68 1.34 1.36 0.68 0 0 Z " fill="#A9060D" transform="translate(120,247)"/>
<path d="M0 0 C0.33 0 0.66 0 1 0 C1 10.23 1 20.46 1 31 C1.99 31 2.98 31 4 31 C3.649375 30.401875 3.29875 29.80375 2.9375 29.1875 C2 27 2 27 3 24 C5.89558441 22.5522078 7.74188938 22 11 22 C11 21.34 11 20.68 11 20 C12.98 19.67 14.96 19.34 17 19 C12.498186 24.54069415 7.67347644 29.63142314 2 34 C1.34 34 0.68 34 0 34 C0 22.78 0 11.56 0 0 Z " fill="#B60C16" transform="translate(156,180)"/>
<path d="M0 0 C3.96 0 7.92 0 12 0 C12.33 7.59 12.66 15.18 13 23 C13.66 23 14.32 23 15 23 C14.67 24.65 14.34 26.3 14 28 C13.01 27.67 12.02 27.34 11 27 C10.67 19.08 10.34 11.16 10 3 C7.03 2.67 4.06 2.34 1 2 C1 17.51 1 33.02 1 49 C0.67 49 0.34 49 0 49 C0 32.83 0 16.66 0 0 Z " fill="#CB1C27" transform="translate(408,177)"/>
<path d="M0 0 C5.66666667 0 11.33333333 0 17 0 C17 0.66 17 1.32 17 2 C15.35 2.66 13.7 3.32 12 4 C11.67 3.01 11.34 2.02 11 1 C8.03 1 5.06 1 2 1 C2 13.21 2 25.42 2 38 C2.99 38 3.98 38 5 38 C4.67 38.66 4.34 39.32 4 40 C2.68 39.67 1.36 39.34 0 39 C0 26.13 0 13.26 0 0 Z " fill="#941218" transform="translate(463,192)"/>
<path d="M0 0 C0.33 0 0.66 0 1 0 C1 4.29 1 8.58 1 13 C6.28 13 11.56 13 17 13 C17 12.34 17 11.68 17 11 C16.34 11 15.68 11 15 11 C15 10.34 15 9.68 15 9 C14.34 9 13.68 9 13 9 C12.67 6.03 12.34 3.06 12 0 C12.66 0 13.32 0 14 0 C14.103125 1.11375 14.20625 2.2275 14.3125 3.375 C14.6528125 5.169375 14.6528125 5.169375 15 7 C15.99 7.66 16.98 8.32 18 9 C20.04853667 10.65427633 20.90317927 11.44469057 21.36076355 14.06913757 C21.35410172 14.8618959 21.34743988 15.65465424 21.34057617 16.47143555 C21.34034958 17.37214279 21.34012299 18.27285004 21.33988953 19.20085144 C21.32440567 20.16968765 21.30892181 21.13852386 21.29296875 22.13671875 C21.28872391 23.13129593 21.28447906 24.12587311 21.28010559 25.15058899 C21.26330153 28.32983375 21.22564576 31.50844656 21.1875 34.6875 C21.17245541 36.84178773 21.15876662 38.99608538 21.14648438 41.15039062 C21.11339244 46.43380967 21.06317592 51.71685969 21 57 C20.67 57 20.34 57 20 57 C19.505 36.21 19.505 36.21 19 15 C12.73 14.67 6.46 14.34 0 14 C0 9.38 0 4.76 0 0 Z " fill="#DF141D" transform="translate(113,167)"/>
<path d="M0 0 C2 0.25 2 0.25 4 1 C5.00005304 4.00015912 5.11575585 5.97423756 5.09765625 9.10546875 C5.09443359 10.08837891 5.09121094 11.07128906 5.08789062 12.08398438 C5.07951172 13.10814453 5.07113281 14.13230469 5.0625 15.1875 C5.05798828 16.22326172 5.05347656 17.25902344 5.04882812 18.32617188 C5.0370401 20.88417266 5.02058515 23.44205733 5 26 C3.68 26 2.36 26 1 26 C0.97494385 25.42032471 0.9498877 24.84064941 0.92407227 24.2434082 C0.80753766 21.59957893 0.68507318 18.95605591 0.5625 16.3125 C0.52318359 15.40048828 0.48386719 14.48847656 0.44335938 13.54882812 C0.40146484 12.66259766 0.35957031 11.77636719 0.31640625 10.86328125 C0.26141968 9.64572144 0.26141968 9.64572144 0.20532227 8.40356445 C0.04377436 5.92787343 0.04377436 5.92787343 -0.58227539 3.25854492 C-0.72012451 2.5132251 -0.85797363 1.76790527 -1 1 C-0.67 0.67 -0.34 0.34 0 0 Z " fill="#F00E1B" transform="translate(174,147)"/>
<path d="M0 0 C1.32 0.33 2.64 0.66 4 1 C4.6875 2.8125 4.6875 2.8125 5 5 C3.8125 6.625 3.8125 6.625 2 8 C-0.26171875 8.29296875 -0.26171875 8.29296875 -2.6875 8.1875 C-3.89986328 8.14689453 -3.89986328 8.14689453 -5.13671875 8.10546875 C-5.75160156 8.07066406 -6.36648438 8.03585938 -7 8 C-7 8.66 -7 9.32 -7 10 C-7.66 9.67 -8.32 9.34 -9 9 C-8.67 8.01 -8.34 7.02 -8 6 C-11.63 5.34 -15.26 4.68 -19 4 C-18.67 5.65 -18.34 7.3 -18 9 C-16.15017528 10.25827123 -16.15017528 10.25827123 -14 11 C-13.01 11.66 -12.02 12.32 -11 13 C-11 13.66 -11 14.32 -11 15 C-15.44633599 13.60258012 -18.0489709 11.60681335 -21 8 C-21.640625 4.828125 -21.640625 4.828125 -22 2 C-19.89905026 1.72426908 -17.79392365 1.48021024 -15.6875 1.25 C-14.51574219 1.11078125 -13.34398437 0.9715625 -12.13671875 0.828125 C-9 1 -9 1 -7.26953125 2.92578125 C-6.64111328 3.95251953 -6.64111328 3.95251953 -6 5 C-3.04638827 6.07575878 -3.04638827 6.07575878 0 6 C1.89958081 4.68681738 1.89958081 4.68681738 3 3 C2.01 2.01 1.02 1.02 0 0 Z " fill="#9A0E19" transform="translate(375,216)"/>
<path d="M0 0 C-0.7734375 1.175625 -0.7734375 1.175625 -1.5625 2.375 C-2.036875 3.24125 -2.51125 4.1075 -3 5 C-2.67 5.66 -2.34 6.32 -2 7 C-2.27942455 8.67654729 -2.60828247 10.34608154 -3 12 C-3.99 11.67 -4.98 11.34 -6 11 C-6.33 12.65 -6.66 14.3 -7 16 C-7.99 16 -8.98 16 -10 16 C-10 15.01 -10 14.02 -10 13 C-10.66 13 -11.32 13 -12 13 C-12.19355538 8.83855932 -12.12847118 5.64880774 -10 2 C-6.62842064 0.08640091 -3.83482114 -0.21913264 0 0 Z " fill="#F40D19" transform="translate(369,193)"/>
<path d="M0 0 C0.99 0.33 1.98 0.66 3 1 C2.67 2.65 2.34 4.3 2 6 C1.34 6 0.68 6 0 6 C0.02320313 6.92941406 0.04640625 7.85882813 0.0703125 8.81640625 C0.24956063 21.09490334 0.24956063 21.09490334 -2 27 C-2.99 26.67 -3.98 26.34 -5 26 C-5 19.4 -5 12.8 -5 6 C-4.01 6 -3.02 6 -2 6 C-1.34 4.02 -0.68 2.04 0 0 Z " fill="#F40C18" transform="translate(135,146)"/>
<path d="M0 0 C3.25516428 3.16474305 6.32008793 6.32752791 9 10 C9 10.66 9 11.32 9 12 C1.08 12 -6.84 12 -15 12 C-15.33 11.34 -15.66 10.68 -16 10 C-15.02417969 9.93941406 -14.04835937 9.87882812 -13.04296875 9.81640625 C-11.77066406 9.73261719 -10.49835938 9.64882813 -9.1875 9.5625 C-7.92292969 9.48128906 -6.65835938 9.40007812 -5.35546875 9.31640625 C-2.00818107 9.12815453 -2.00818107 9.12815453 1 8 C0.67 5.36 0.34 2.72 0 0 Z " fill="#B6131E" transform="translate(214,251)"/>
<path d="M0 0 C2.09749995 2.35968744 2.96905704 3.54616994 3.1875 6.75 C3.0946875 7.86375 3.0946875 7.86375 3 9 C0.32055615 10.33972193 -1.52598631 9.98479055 -4.5 9.75 C-5.4796875 9.68296875 -6.459375 9.6159375 -7.46875 9.546875 C-10 9 -10 9 -12 6 C-15.58357241 5.74984127 -15.58357241 5.74984127 -19 6 C-16.96731398 8.16343011 -16.96731398 8.16343011 -14 10 C-15.98 10 -17.96 10 -20 10 C-20.33 7.69 -20.66 5.38 -21 3 C-19.39620659 2.94583812 -17.79188594 2.90713362 -16.1875 2.875 C-15.29417969 2.85179687 -14.40085937 2.82859375 -13.48046875 2.8046875 C-11 3 -11 3 -8 5 C-8 5.66 -8 6.32 -8 7 C-5.36 7 -2.72 7 0 7 C0 4.69 0 2.38 0 0 Z " fill="#C7161F" transform="translate(388,196)"/>
<path d="M0 0 C0.90654677 5.32596226 1.39446773 10.59347171 1 16 C0 17 0 17 -3.5625 17.125 C-9.0907826 17.69482298 -12.24733813 21.17747474 -16 25 C-16.66 23.68 -17.32 22.36 -18 21 C-16.68 21 -15.36 21 -14 21 C-14 20.34 -14 19.68 -14 19 C-13.01 19 -12.02 19 -11 19 C-11 17.35 -11 15.7 -11 14 C-10.34 14 -9.68 14 -9 14 C-9 14.66 -9 15.32 -9 16 C-6.36 16 -3.72 16 -1 16 C-1 11.38 -1 6.76 -1 2 C-3.31 2 -5.62 2 -8 2 C-4.91190305 0.23537317 -3.76687864 0 0 0 Z " fill="#750E12" transform="translate(199,165)"/>
<path d="M0 0 C1.68319336 0.03383789 1.68319336 0.03383789 3.40039062 0.06835938 C6.16412536 0.12716224 8.92512554 0.20929599 11.6875 0.3125 C11.6875 4.64241847 9.57244631 6.22627837 6.6875 9.3125 C5.6975 9.6425 4.7075 9.9725 3.6875 10.3125 C3.3575 8.6625 3.0275 7.0125 2.6875 5.3125 C3.3475 5.3125 4.0075 5.3125 4.6875 5.3125 C4.6875 4.6525 4.6875 3.9925 4.6875 3.3125 C1.77058475 3.25848305 -1.14532724 3.21881934 -4.0625 3.1875 C-4.8875 3.17074219 -5.7125 3.15398437 -6.5625 3.13671875 C-7.36171875 3.13027344 -8.1609375 3.12382812 -8.984375 3.1171875 C-10.08410645 3.10147705 -10.08410645 3.10147705 -11.20605469 3.08544922 C-13.61146076 3.34472456 -15.22501494 4.12024075 -17.3125 5.3125 C-12.77742489 -1.18811556 -7.41148652 -0.28155852 0 0 Z " fill="#B91117" transform="translate(205.3125,186.6875)"/>
<path d="M0 0 C1.5 1.625 1.5 1.625 2 4 C1.75 7.6875 1.75 7.6875 1 11 C0.01 11.495 0.01 11.495 -1 12 C-0.95117188 8.97265625 -0.95117188 8.97265625 -0.90234375 5.9453125 C-0.87350758 3.91814596 -0.87350758 3.91814596 -2 2 C-3.98 2 -5.96 2 -8 2 C-8.33 4.64 -8.66 7.28 -9 10 C-8.01 10 -7.02 10 -6 10 C-6 10.66 -6 11.32 -6 12 C-4.68 12.33 -3.36 12.66 -2 13 C-8.42570647 13.36371923 -8.42570647 13.36371923 -10.875 11.8125 C-12.35405406 9.42957957 -12.86591307 7.81582552 -13 5 C-11.75 2.25 -11.75 2.25 -10 0 C-6.21603308 -1.26132231 -3.85909105 -0.91214879 0 0 Z " fill="#A8111A" transform="translate(458,176)"/>
<path d="M0 0 C2.31 0 4.62 0 7 0 C7 0.66 7 1.32 7 2 C7.99 2.33 8.98 2.66 10 3 C10.33 4.65 10.66 6.3 11 8 C10.2575 7.175 9.515 6.35 8.75 5.5 C6.12612615 2.55155147 6.12612615 2.55155147 2 3 C-0.17507832 5.17507832 0.6486711 10.7584093 0.5703125 13.83398438 C0.36039597 18.5702261 -0.54123873 21.82536523 -3 26 C-3.5625 24.0625 -3.5625 24.0625 -4 22 C-3.67 21.67 -3.34 21.34 -3 21 C-2.84417697 19.65984779 -2.74955858 18.31241097 -2.68359375 16.96484375 C-2.62075195 15.75151367 -2.62075195 15.75151367 -2.55664062 14.51367188 C-2.51732422 13.66353516 -2.47800781 12.81339844 -2.4375 11.9375 C-2.39431641 11.08349609 -2.35113281 10.22949219 -2.30664062 9.34960938 C-2.20023298 7.23327963 -2.09958269 5.11666187 -2 3 C-1.34 3 -0.68 3 0 3 C0 2.01 0 1.02 0 0 Z " fill="#A31119" transform="translate(169,229)"/>
<path d="M0 0 C0.33 0 0.66 0 1 0 C1.02527124 6.24795675 1.04283344 12.49590041 1.05493164 18.74389648 C1.05997298 20.87118014 1.06680591 22.99846031 1.07543945 25.12573242 C1.08751379 28.17627826 1.09323014 31.22677845 1.09765625 34.27734375 C1.10281754 35.23462875 1.10797882 36.19191376 1.11329651 37.1782074 C1.11337204 38.05904495 1.11344757 38.93988251 1.11352539 39.84741211 C1.115746 40.62684677 1.11796661 41.40628143 1.12025452 42.20933533 C1 44 1 44 0 45 C-1.99958364 45.04080783 -4.00045254 45.04254356 -6 45 C-5.67 47.64 -5.34 50.28 -5 53 C-3.02 53.33 -1.04 53.66 1 54 C1 54.33 1 54.66 1 55 C-1.33294775 55.04241723 -3.66702567 55.04092937 -6 55 C-7 54 -7 54 -7.09765625 51.71484375 C-7.08605469 50.79832031 -7.07445312 49.88179687 -7.0625 48.9375 C-7.05347656 48.01839844 -7.04445312 47.09929687 -7.03515625 46.15234375 C-7.02355469 45.44207031 -7.01195312 44.73179687 -7 44 C-4.03 43.505 -4.03 43.505 -1 43 C-0.67 28.81 -0.34 14.62 0 0 Z " fill="#730A0D" transform="translate(253,192)"/>
<path d="M0 0 C0.88284635 3.53138539 1.05034539 4.76428732 0.5625 8.125 C-0.02781044 13.23846836 -0.11732109 18.29672505 -0.125 23.4375 C-0.13164673 24.62786865 -0.13164673 24.62786865 -0.13842773 25.84228516 C-0.13028353 29.14741695 -0.05219418 31.84341745 1 35 C0.01 35 -0.98 35 -2 35 C-2.02469081 30.6217488 -2.04285557 26.24353433 -2.05493164 21.86523438 C-2.05996514 20.37531834 -2.06679242 18.88540726 -2.07543945 17.39550781 C-2.08754805 15.25584696 -2.09323807 13.11625132 -2.09765625 10.9765625 C-2.10289307 9.68830566 -2.10812988 8.40004883 -2.11352539 7.07275391 C-2 4 -2 4 -1 2 C-3.64 2 -6.28 2 -9 2 C-9 5.96 -9 9.92 -9 14 C-9.33 14 -9.66 14 -10 14 C-10.33 9.71 -10.66 5.42 -11 1 C-5.555 0.505 -5.555 0.505 0 0 Z " fill="#E2121C" transform="translate(159,176)"/>
<path d="M0 0 C1.5 1.625 1.5 1.625 2 4 C1.55555556 10.44444444 1.55555556 10.44444444 -1 13 C-7.90410959 13.54794521 -7.90410959 13.54794521 -11 12 C-12.63609197 8.72781607 -12.77749189 5.56165332 -12 2 C-8.29255488 -1.70744512 -4.85867525 -1.37509677 0 0 Z M-8 1 C-8 1.66 -8 2.32 -8 3 C-8.66 3 -9.32 3 -10 3 C-10.20970559 7.14093698 -10.20970559 7.14093698 -9 11 C-4.9899066 11.17864631 -4.9899066 11.17864631 -1 11 C-0.34 10.34 0.32 9.68 1 9 C0.67801034 5.90073181 0.67801034 5.90073181 0 3 C-0.66 3 -1.32 3 -2 3 C-2 2.34 -2 1.68 -2 1 C-3.98 1 -5.96 1 -8 1 Z " fill="#901016" transform="translate(349,176)"/>
<path d="M0 0 C0 3.52032428 -0.70351351 4.4385343 -3 7 C-3.66 7 -4.32 7 -5 7 C-4.99476318 7.7206665 -4.98952637 8.44133301 -4.98413086 9.18383789 C-4.96323125 12.47671625 -4.95029869 15.76958059 -4.9375 19.0625 C-4.92912109 20.19623047 -4.92074219 21.32996094 -4.91210938 22.49804688 C-4.87882114 33.9159122 -4.87882114 33.9159122 -6 39 C-6.66 39.66 -7.32 40.32 -8 41 C-9.32 41 -10.64 41 -12 41 C-12 40.34 -12 39.68 -12 39 C-11.34 39 -10.68 39 -10 39 C-6.84283284 30.70002597 -6.59962244 22.57082814 -6.73071289 13.79443359 C-6.67518429 8.8881156 -6.52418523 5.90756621 -2.95703125 2.33203125 C-1.98121094 1.56246094 -1.00539062 0.79289063 0 0 Z " fill="#9D0C16" transform="translate(162,216)"/>
<path d="M0 0 C2 2 2 2 2.375 5.9375 C2.28694468 8.79152833 2.23484076 9.69940383 0.4375 12 C-2.98373035 13.40358168 -5.33851392 13.52306944 -9 13 C-11.5 10.875 -11.5 10.875 -13 8 C-13.0625 4.875 -13.0625 4.875 -12 2 C-8.07717717 -1.5766914 -4.98793859 -1.22345664 0 0 Z M-11 3 C-10.81535634 7.34184202 -10.81535634 7.34184202 -9 11 C-4.98342857 11.22918242 -4.98342857 11.22918242 -1 11 C1.30662599 9.11340125 1.30662599 9.11340125 1.3125 6 C1.209375 5.01 1.10625 4.02 1 3 C-3.43229352 0.04513765 -6.56770648 0.04513765 -11 3 Z " fill="#870D14" transform="translate(265,176)"/>
<path d="M0 0 C0.66 0 1.32 0 2 0 C2 0.99 2 1.98 2 3 C3.98 3 5.96 3 8 3 C8 5.31 8 7.62 8 10 C2.62694301 10.35233161 2.62694301 10.35233161 0 10 C-2 8 -2 8 -3 6 C-2.01 4.02 -1.02 2.04 0 0 Z " fill="#F20E1C" transform="translate(380,193)"/>
<path d="M0 0 C1.43655854 -0.08131463 2.8744483 -0.13933559 4.3125 -0.1875 C5.51326172 -0.23970703 5.51326172 -0.23970703 6.73828125 -0.29296875 C9 0 9 0 10.62304688 1.13085938 C12.61469397 3.83441437 12.33984928 5.87070145 12.29296875 9.19921875 C12.28330078 10.40771484 12.27363281 11.61621094 12.26367188 12.86132812 C12.23853516 14.12396484 12.21339844 15.38660156 12.1875 16.6875 C12.17396484 17.96173828 12.16042969 19.23597656 12.14648438 20.54882812 C12.11108199 23.69964057 12.0616979 26.84961045 12 30 C11.67 30 11.34 30 11 30 C10.67 21.42 10.34 12.84 10 4 C3.54823498 2.3346347 3.54823498 2.3346347 0.5625 4.4375 C0.046875 4.953125 -0.46875 5.46875 -1 6 C-0.67 4.02 -0.34 2.04 0 0 Z " fill="#7C070C" transform="translate(306,200)"/>
<path d="M0 0 C1.32 0.33 2.64 0.66 4 1 C3 3 3 3 1 4 C1 7.96 1 11.92 1 16 C-2.74368742 17.87184371 -3.8400791 18.23999767 -7.75 18.125 C-8.54921875 18.10695312 -9.3484375 18.08890625 -10.171875 18.0703125 C-10.77515625 18.04710937 -11.3784375 18.02390625 -12 18 C-12.33 16.35 -12.66 14.7 -13 13 C-12.34 13 -11.68 13 -11 13 C-11 13.66 -11 14.32 -11 15 C-7.7 15 -4.4 15 -1 15 C-1.01160156 14.08476562 -1.02320313 13.16953125 -1.03515625 12.2265625 C-1.04417969 11.03804687 -1.05320312 9.84953125 -1.0625 8.625 C-1.07410156 7.44164062 -1.08570313 6.25828125 -1.09765625 5.0390625 C-1 2 -1 2 0 0 Z " fill="#950F18" transform="translate(420,214)"/>
<path d="M0 0 C2.38563376 1.19961355 4.67326096 2.45272243 6.9296875 3.87890625 C6.9296875 4.86890625 6.9296875 5.85890625 6.9296875 6.87890625 C6.3728125 6.40453125 5.8159375 5.93015625 5.2421875 5.44140625 C2.74622676 3.75494629 0.8850638 3.28937518 -2.0703125 2.87890625 C-2.0703125 2.21890625 -2.0703125 1.55890625 -2.0703125 0.87890625 C-6.3603125 0.54890625 -10.6503125 0.21890625 -15.0703125 -0.12109375 C-15.4003125 0.86890625 -15.7303125 1.85890625 -16.0703125 2.87890625 C-18.7103125 3.20890625 -21.3503125 3.53890625 -24.0703125 3.87890625 C-18.28578894 -2.81896314 -7.82179418 -2.85604953 0 0 Z " fill="#971116" transform="translate(164.0703125,134.12109375)"/>
<path d="M0 0 C4.95 0 9.9 0 15 0 C14 4 14 4 11 6 C11 4.35 11 2.7 11 1 C8.69 1 6.38 1 4 1 C3.67 1.66 3.34 2.32 3 3 C-2.5952381 8 -2.5952381 8 -5 8 C-4.67 6.68 -4.34 5.36 -4 4 C-3.34 4 -2.68 4 -2 4 C-1.34 2.68 -0.68 1.36 0 0 Z " fill="#A81119" transform="translate(428,192)"/>
<path d="M0 0 C1.5625 2.875 1.5625 2.875 2 6 C1.125 8.375 1.125 8.375 0 10 C-0.33 10 -0.66 10 -1 10 C-1 7.36 -1 4.72 -1 2 C-1.66 2 -2.32 2 -3 2 C-3 1.34 -3 0.68 -3 0 C-5.64 0.33 -8.28 0.66 -11 1 C-11 3.97 -11 6.94 -11 10 C-13 8 -13 8 -13.25 5.0625 C-13 2 -13 2 -11 -1 C-7.15567604 -2.85097079 -3.75661871 -1.6000413 0 0 Z " fill="#880D12" transform="translate(516,177)"/>
<path d="M0 0 C4.00936388 3.77819335 7.17270443 7.79584593 10.3125 12.3125 C10.76689453 12.95767578 11.22128906 13.60285156 11.68945312 14.26757812 C12.79735952 15.84197142 13.89930525 17.42055646 15 19 C12 19 12 19 9.8125 17.125 C8 15 8 15 8 13 C7.34 13 6.68 13 6 13 C6 11.68 6 10.36 6 9 C5.01 8.67 4.02 8.34 3 8 C3 7.34 3 6.68 3 6 C1.68 5.67 0.36 5.34 -1 5 C-0.67 3.35 -0.34 1.7 0 0 Z " fill="#A20F17" transform="translate(199,231)"/>
<path d="M0 0 C1.32 0.33 2.64 0.66 4 1 C4.6875 2.8125 4.6875 2.8125 5 5 C3.8125 6.625 3.8125 6.625 2 8 C-0.26171875 8.29296875 -0.26171875 8.29296875 -2.6875 8.1875 C-3.89986328 8.14689453 -3.89986328 8.14689453 -5.13671875 8.10546875 C-5.75160156 8.07066406 -6.36648438 8.03585938 -7 8 C-7 8.66 -7 9.32 -7 10 C-7.66 9.67 -8.32 9.34 -9 9 C-8.67 8.01 -8.34 7.02 -8 6 C-11.3 5.34 -14.6 4.68 -18 4 C-18 3.67 -18 3.34 -18 3 C-11.97803963 2.63868238 -8.42531779 3.16403843 -3 6 C-0.21352443 5.79564192 -0.21352443 5.79564192 2 5 C2 4.01 2 3.02 2 2 C1.34 1.34 0.68 0.68 0 0 Z " fill="#B61019" transform="translate(375,216)"/>
<path d="M0 0 C0 0.66 0 1.32 0 2 C1.98 2 3.96 2 6 2 C6 3.32 6 4.64 6 6 C5.4225 5.690625 4.845 5.38125 4.25 5.0625 C-1.76132288 2.22381975 -8.23608396 2.22416392 -14.5625 4 C-15.366875 4.33 -16.17125 4.66 -17 5 C-17 4.01 -17 3.02 -17 2 C-11.21642935 -0.01167675 -6.09781001 -0.22084624 0 0 Z " fill="#9E1017" transform="translate(161,139)"/>
<path d="M0 0 C3.96 0 7.92 0 12 0 C12.33 7.59 12.66 15.18 13 23 C13.66 23 14.32 23 15 23 C14.67 24.65 14.34 26.3 14 28 C13.01 27.67 12.02 27.34 11 27 C11 18.42 11 9.84 11 1 C7.37 1 3.74 1 0 1 C0 0.67 0 0.34 0 0 Z " fill="#980F13" transform="translate(408,177)"/>
<path d="M0 0 C0.66 0 1.32 0 2 0 C1.76519234 7.39644129 0.02194645 12.43704761 -5 18 C-7.19921875 19.25390625 -7.19921875 19.25390625 -9 20 C-9.33 18.68 -9.66 17.36 -10 16 C-8.68 16.33 -7.36 16.66 -6 17 C-6 15.68 -6 14.36 -6 13 C-4.68 12.67 -3.36 12.34 -2 12 C-2 10.35 -2 8.7 -2 7 C-1.34 7 -0.68 7 0 7 C0 4.69 0 2.38 0 0 Z " fill="#981219" transform="translate(149,240)"/>
<path d="M0 0 C0.99 0.33 1.98 0.66 3 1 C4.0625 3.375 4.0625 3.375 5 6 C5.99 7.485 5.99 7.485 7 9 C7 10.32 7 11.64 7 13 C11.29 13 15.58 13 20 13 C18 15 18 15 15.3984375 15.1953125 C14.40070313 15.17210937 13.40296875 15.14890625 12.375 15.125 C10.87066406 15.09792969 10.87066406 15.09792969 9.3359375 15.0703125 C8.56507813 15.04710937 7.79421875 15.02390625 7 15 C5.82823482 12.87767021 4.66245215 10.75242209 3.5 8.625 C3.16613281 8.02171875 2.83226562 7.4184375 2.48828125 6.796875 C0 2.2265625 0 2.2265625 0 0 Z " fill="#891119" transform="translate(424,217)"/>
<path d="M0 0 C3.43079585 3.43079585 3.43079585 3.43079585 3.4375 7.3125 C3.28923424 11.86425894 1.991922 14.49517708 -1 18 C-4 20 -4 20 -7 20 C-6.67 18.68 -6.34 17.36 -6 16 C-4.35 16 -2.7 16 -1 16 C-1 15.01 -1 14.02 -1 13 C-0.34 13 0.32 13 1 13 C0.67 8.71 0.34 4.42 0 0 Z " fill="#880E14" transform="translate(389,211)"/>
<path d="M0 0 C6.52307692 -0.36923077 6.52307692 -0.36923077 8.9375 1.5 C9.288125 1.995 9.63875 2.49 10 3 C9.01 4.485 9.01 4.485 8 6 C5.69 5.67 3.38 5.34 1 5 C0.67 3.35 0.34 1.7 0 0 Z " fill="#ED0E19" transform="translate(356,220)"/>
<path d="M0 0 C0 0.66 0 1.32 0 2 C0.66 2 1.32 2 2 2 C1.67 3.98 1.34 5.96 1 8 C0.67 7.01 0.34 6.02 0 5 C-4.14093698 4.79029441 -4.14093698 4.79029441 -8 6 C-8 4.35 -8 2.7 -8 1 C-5.29120665 -0.35439668 -2.99066732 -0.06501451 0 0 Z " fill="#F10E1C" transform="translate(513,177)"/>
<path d="M0 0 C0.33 0 0.66 0 1 0 C1.33 3.96 1.66 7.92 2 12 C2.66 11.34 3.32 10.68 4 10 C5.60080151 14.00200378 4.29279692 17.04556236 3 21 C2.01 20.67 1.02 20.34 0 20 C0 13.4 0 6.8 0 0 Z " fill="#E5131F" transform="translate(130,152)"/>
<path d="M0 0 C0.33 0.66 0.66 1.32 1 2 C0.34 2 -0.32 2 -1 2 C-1.26167969 2.57363281 -1.52335938 3.14726562 -1.79296875 3.73828125 C-3.08496445 6.15920523 -4.54093246 8.09382927 -6.3125 10.1875 C-7.17294922 11.22970703 -7.17294922 11.22970703 -8.05078125 12.29296875 C-10.3526152 14.30880329 -11.99853484 14.65387579 -15 15 C-14.34 14.01 -13.68 13.02 -13 12 C-12.34 12 -11.68 12 -11 12 C-10.34 10.68 -9.68 9.36 -9 8 C-8.34 8 -7.68 8 -7 8 C-6.67 7.01 -6.34 6.02 -6 5 C-4.12382302 3.15500602 -2.07262391 1.6316401 0 0 Z " fill="#8A0C14" transform="translate(187,192)"/>
<path d="M0 0 C0.66 0.33 1.32 0.66 2 1 C1.01 3.31 0.02 5.62 -1 8 C-1.66 8 -2.32 8 -3 8 C-3.144375 8.61875 -3.28875 9.2375 -3.4375 9.875 C-4 12 -4 12 -5 14 C-5.99 14 -6.98 14 -8 14 C-6.78065514 9.96678237 -5.44045073 6.45730521 -3 3 C-2.34 3 -1.68 3 -1 3 C-0.67 2.01 -0.34 1.02 0 0 Z " fill="#B71117" transform="translate(138,138)"/>
<path d="M0 0 C0.33 0 0.66 0 1 0 C1.33 7.26 1.66 14.52 2 22 C3.32 22.33 4.64 22.66 6 23 C3.66705225 23.04241723 1.33297433 23.04092937 -1 23 C-2 22 -2 22 -2.09765625 20.15234375 C-2.06510417 18.1015625 -2.03255208 16.05078125 -2 14 C-1.67 14 -1.34 14 -1 14 C-0.67 9.38 -0.34 4.76 0 0 Z M-1 17 C0 21 0 21 0 21 Z " fill="#951215" transform="translate(129,152)"/>
<path d="M0 0 C0.33 0 0.66 0 1 0 C1.05447822 2.52113092 1.09389852 5.0410585 1.125 7.5625 C1.14175781 8.26697266 1.15851563 8.97144531 1.17578125 9.69726562 C1.22022044 14.51891822 0.52768004 18.42297438 -1 23 C-1.99 23 -2.98 23 -4 23 C-3.34 20.03 -2.68 17.06 -2 14 C-1.34 14 -0.68 14 0 14 C0 9.38 0 4.76 0 0 Z " fill="#B7111B" transform="translate(133,224)"/>
<path d="M0 0 C2.4375 0.375 2.4375 0.375 5 1 C5.33 1.66 5.66 2.32 6 3 C5.34 3 4.68 3 4 3 C4 3.66 4 4.32 4 5 C4.66 5.33 5.32 5.66 6 6 C4.741875 6.04125 3.48375 6.0825 2.1875 6.125 C1.47980469 6.14820313 0.77210938 6.17140625 0.04296875 6.1953125 C-2 6 -2 6 -5 4 C-3.68 4 -2.36 4 -1 4 C-0.67 2.68 -0.34 1.36 0 0 Z " fill="#F90D1A" transform="translate(370,207)"/>
<path d="M0 0 C1.60080151 4.00200378 0.29279692 7.04556236 -1 11 C-0.34 11 0.32 11 1 11 C1.33 12.98 1.66 14.96 2 17 C-1 16 -1 16 -2.1875 14.375 C-3.31412434 11.08179039 -3.30360429 8.46108887 -3 5 C-1.5 2.0625 -1.5 2.0625 0 0 Z " fill="#A6121B" transform="translate(358,195)"/>
<path d="M0 0 C6.93 0.33 13.86 0.66 21 1 C16.18221151 4.21185899 10.31680489 3.65994746 4.72265625 2.546875 C3.13012579 2.09093581 1.56079046 1.55494772 0 1 C0 0.67 0 0.34 0 0 Z " fill="#9F1019" transform="translate(112,262)"/>
<path d="M0 0 C-0.33 0.66 -0.66 1.32 -1 2 C-1.94875 1.979375 -2.8975 1.95875 -3.875 1.9375 C-6.90666283 1.77448174 -6.90666283 1.77448174 -9 3 C-8.67 5.97 -8.34 8.94 -8 12 C-10.0625 10.375 -10.0625 10.375 -12 8 C-12.0625 4.9375 -12.0625 4.9375 -11 2 C-7.25568373 -1.31639441 -4.72254569 -1.20809308 0 0 Z " fill="#9E1019" transform="translate(264,176)"/>
<path d="M0 0 C1.32 0 2.64 0 4 0 C5.27861615 2.55723229 5.11336609 4.36737102 5.09765625 7.2265625 C5.09282227 8.7734375 5.09282227 8.7734375 5.08789062 10.3515625 C5.07951172 11.43179688 5.07113281 12.51203125 5.0625 13.625 C5.05798828 14.71296875 5.05347656 15.8009375 5.04882812 16.921875 C5.03701776 19.61463789 5.02054778 22.30729188 5 25 C4.67 25 4.34 25 4 25 C3.93941406 23.68644531 3.87882812 22.37289062 3.81640625 21.01953125 C3.73196744 19.28384459 3.64732112 17.54816802 3.5625 15.8125 C3.52318359 14.94818359 3.48386719 14.08386719 3.44335938 13.19335938 C3.21787882 7.02271419 3.21787882 7.02271419 2 1 C1.34 0.67 0.68 0.34 0 0 Z " fill="#C7131C" transform="translate(484,202)"/>
<path d="M0 0 C0.66 0.33 1.32 0.66 2 1 C1.01 2.485 1.01 2.485 0 4 C-0.66 4 -1.32 4 -2 4 C-2.99 8.62 -3.98 13.24 -5 18 C-5.33 18 -5.66 18 -6 18 C-6 14.37 -6 10.74 -6 7 C-5.34 7 -4.68 7 -4 7 C-4 5.68 -4 4.36 -4 3 C-3.01 3 -2.02 3 -1 3 C-0.67 2.01 -0.34 1.02 0 0 Z " fill="#8C0D14" transform="translate(141,145)"/>
<path d="M0 0 C3.4375 0.875 3.4375 0.875 4.9375 2.5 C5.64376866 5.85477612 5.18939588 8.55412654 4.4375 11.875 C3.4475 12.37 3.4475 12.37 2.4375 12.875 C2.48632812 9.84765625 2.48632812 9.84765625 2.53515625 6.8203125 C2.56399242 4.79314596 2.56399242 4.79314596 1.4375 2.875 C-0.45783342 2.40976937 -0.45783342 2.40976937 -2.625 2.25 C-3.924375 2.12625 -5.22375 2.0025 -6.5625 1.875 C-3.5625 -0.125 -3.5625 -0.125 0 0 Z " fill="#960F17" transform="translate(454.5625,175.125)"/>
<path d="M0 0 C2.475 0.99 2.475 0.99 5 2 C5 2.99 5 3.98 5 5 C6.15628906 5.09087891 6.15628906 5.09087891 7.3359375 5.18359375 C8.84027344 5.30927734 8.84027344 5.30927734 10.375 5.4375 C11.87160156 5.55931641 11.87160156 5.55931641 13.3984375 5.68359375 C16 6 16 6 18 7 C17 8 17 8 15.07421875 8.1328125 C14.28660156 8.13023437 13.49898437 8.12765625 12.6875 8.125 C11.51767578 8.12886719 11.51767578 8.12886719 10.32421875 8.1328125 C6.27270146 7.90129723 4.56967909 7.61715234 1.75 4.5625 C0 2 0 2 0 0 Z " fill="#B7111E" transform="translate(98,250)"/>
<path d="M0 0 C1.32 0.33 2.64 0.66 4 1 C4 2.32 4 3.64 4 5 C3.34 5 2.68 5 2 5 C1.67 5.66 1.34 6.32 1 7 C-0.32 7 -1.64 7 -3 7 C-2.67 5.68 -2.34 4.36 -2 3 C-1.34 3 -0.68 3 0 3 C0 2.01 0 1.02 0 0 Z " fill="#F80C15" transform="translate(260,179)"/>
<path d="M0 0 C0.66 0.33 1.32 0.66 2 1 C1.67 1.66 1.34 2.32 1 3 C4.96 3 8.92 3 13 3 C9.67675725 4.66162137 8.00698505 5.34165243 4.5 5.75 C3.7471875 5.84796875 2.994375 5.9459375 2.21875 6.046875 C-0.34582212 5.9926939 -1.81234507 5.29270519 -4 4 C-2.68 2.68 -1.36 1.36 0 0 Z " fill="#8E0E16" transform="translate(146,259)"/>
<path d="M0 0 C5.77494139 -0.34649648 9.99303982 -0.29726646 15 3 C17 6 17 6 16.625 8.1875 C16.315625 9.0846875 16.315625 9.0846875 16 10 C16 9.01 16 8.02 16 7 C15.0409375 6.566875 15.0409375 6.566875 14.0625 6.125 C12 5 12 5 11 3 C8.42048126 2.30906104 8.42048126 2.30906104 5.4375 1.875 C4.42558594 1.70742187 3.41367187 1.53984375 2.37109375 1.3671875 C1.58863281 1.24601563 0.80617188 1.12484375 0 1 C0 0.67 0 0.34 0 0 Z " fill="#910E18" transform="translate(482,191)"/>
<path d="M0 0 C0.66 0 1.32 0 2 0 C2.4375 2.125 2.4375 2.125 2 5 C-0.12689146 7.276147 -2.5023433 9.1458722 -5 11 C-5.66 9.68 -6.32 8.36 -7 7 C-5.68 7 -4.36 7 -3 7 C-3 6.34 -3 5.68 -3 5 C-2.01 5 -1.02 5 0 5 C0 3.35 0 1.7 0 0 Z " fill="#AF0E17" transform="translate(188,179)"/>
<path d="M0 0 C0.66 0 1.32 0 2 0 C2.125 3.375 2.125 3.375 2 7 C1.34 7.66 0.68 8.32 0 9 C-1.32 9 -2.64 9 -4 9 C-4 8.34 -4 7.68 -4 7 C-3.34 7 -2.68 7 -2 7 C-1.34 4.69 -0.68 2.38 0 0 Z " fill="#B30E19" transform="translate(154,248)"/>
<path d="M0 0 C0.66 0.33 1.32 0.66 2 1 C-0.04533429 4.06800143 -0.68633389 4.76618815 -4 6 C-6.578125 6.1953125 -6.578125 6.1953125 -9.25 6.125 C-10.14203125 6.10695312 -11.0340625 6.08890625 -11.953125 6.0703125 C-12.96632812 6.03550781 -12.96632812 6.03550781 -14 6 C-14 5.67 -14 5.34 -14 5 C-12.4188708 4.49307308 -10.83498617 3.99473557 -9.25 3.5 C-8.36828125 3.2215625 -7.4865625 2.943125 -6.578125 2.65625 C-4 2 -4 2 0 2 C0 1.34 0 0.68 0 0 Z " fill="#A8101C" transform="translate(262,240)"/>
<path d="M0 0 C10.55808656 0.59453303 10.55808656 0.59453303 15 4 C12.0894446 5.4552777 10.04150948 4.63516661 6.875 4.0625 C5.77929688 3.86785156 4.68359375 3.67320312 3.5546875 3.47265625 C2.71164062 3.31667969 1.86859375 3.16070312 1 3 C0.67 2.01 0.34 1.02 0 0 Z " fill="#AD1017" transform="translate(374,206)"/>
<path d="M0 0 C0 3 0 3 -2 6 C-1.505 6.78375 -1.01 7.5675 -0.5 8.375 C1 11 1 11 1 13 C0.34 13 -0.32 13 -1 13 C-3.84450614 9.28026121 -4.3227506 6.62609198 -4 2 C-2.68 1.34 -1.36 0.68 0 0 Z " fill="#8D0F15" transform="translate(435,202)"/>
<path d="M0 0 C1.984375 1.484375 1.984375 1.484375 4 4 C4.2906124 6.89449949 4.38186045 9.37949935 4.25 12.25 C4.23195313 12.99507812 4.21390625 13.74015625 4.1953125 14.5078125 C4.14835649 16.33909701 4.07661652 18.16971649 4 20 C3.67 20 3.34 20 3 20 C3 15.38 3 10.76 3 6 C2.34 6 1.68 6 1 6 C0.67 4.02 0.34 2.04 0 0 Z " fill="#B8121D" transform="translate(326,194)"/>
<path d="M0 0 C-1.1427919 1.16964602 -2.28931715 2.33564556 -3.4375 3.5 C-4.07558594 4.1496875 -4.71367187 4.799375 -5.37109375 5.46875 C-7 7 -7 7 -8 7 C-8 5.35 -8 3.7 -8 2 C-7.34 2 -6.68 2 -6 2 C-6 1.34 -6 0.68 -6 0 C-3 -1 -3 -1 0 0 Z " fill="#B20E15" transform="translate(173,200)"/>
<path d="M0 0 C2.475 0.99 2.475 0.99 5 2 C3.95125002 4.62187494 3.35068687 5.79371361 0.875 7.25 C0.25625 7.4975 -0.3625 7.745 -1 8 C-0.67 5.36 -0.34 2.72 0 0 Z " fill="#C9101A" transform="translate(434,196)"/>
<path d="M0 0 C0 1.65 0 3.3 0 5 C-0.33 3.68 -0.66 2.36 -1 1 C-2.65 1.33 -4.3 1.66 -6 2 C-6.33 3.65 -6.66 5.3 -7 7 C-7.66 6.67 -8.32 6.34 -9 6 C-9 4.35 -9 2.7 -9 1 C-6.04335481 -0.4783226 -3.25770263 -0.06032783 0 0 Z " fill="#EF0F1E" transform="translate(439,193)"/>
<path d="M0 0 C0.66 0 1.32 0 2 0 C2 0.66 2 1.32 2 2 C5.3 2 8.6 2 12 2 C9.09907498 3.93395001 8.10325263 4.30131941 4.8125 4.625 C3.554375 4.74875 2.29625 4.8725 1 5 C0.67 3.35 0.34 1.7 0 0 Z " fill="#B51821" transform="translate(407,227)"/>
<path d="M0 0 C0 0.33 0 0.66 0 1 C-0.81984375 1.04898438 -1.6396875 1.09796875 -2.484375 1.1484375 C-3.56203125 1.22320312 -4.6396875 1.29796875 -5.75 1.375 C-7.35101563 1.47941406 -7.35101563 1.47941406 -8.984375 1.5859375 C-11.83160733 1.97687873 -13.51066844 2.66642952 -16 4 C-18.25 3.625 -18.25 3.625 -20 3 C-13.45841601 -0.65111665 -7.36120371 -0.29887594 0 0 Z " fill="#940F18" transform="translate(379,191)"/>
<path d="M0 0 C1.32 0 2.64 0 4 0 C4.53012738 1.28788008 5.0488329 2.58046678 5.5625 3.875 C5.99755859 4.95394531 5.99755859 4.95394531 6.44140625 6.0546875 C7 8 7 8 6 10 C3 6.25 3 6.25 3 4 C2.34 4 1.68 4 1 4 C0.67 2.68 0.34 1.36 0 0 Z " fill="#A10D18" transform="translate(191,251)"/>
<path d="M0 0 C1.67542976 0.28604898 3.34385343 0.61781233 5 1 C4.04578192 2.14926266 3.08647955 3.29430541 2.125 4.4375 C1.59132812 5.07558594 1.05765625 5.71367187 0.5078125 6.37109375 C-1 8 -1 8 -3 9 C-2.67 7.68 -2.34 6.36 -2 5 C-1.34 5 -0.68 5 0 5 C-0.2784375 4.0409375 -0.2784375 4.0409375 -0.5625 3.0625 C-0.706875 2.381875 -0.85125 1.70125 -1 1 C-0.67 0.67 -0.34 0.34 0 0 Z " fill="#B60F18" transform="translate(197,203)"/>
<path d="M0 0 C0.33 0 0.66 0 1 0 C1 1.65 1 3.3 1 5 C-1.67157375 6.33578688 -3.53150674 6.01951335 -6.5 5.8125 C-7.4796875 5.75707031 -8.459375 5.70164063 -9.46875 5.64453125 C-12 5 -12 5 -13.34375 2.94921875 C-13.5603125 2.30597656 -13.776875 1.66273438 -14 1 C-13.01 1.33 -12.02 1.66 -11 2 C-11 2.66 -11 3.32 -11 4 C-7.7 4 -4.4 4 -1 4 C-0.67 2.68 -0.34 1.36 0 0 Z " fill="#830D13" transform="translate(390,200)"/>
<path d="M0 0 C2.64 0.33 5.28 0.66 8 1 C8 1.33 8 1.66 8 2 C6.02 2.33 4.04 2.66 2 3 C4.03268602 5.16343011 4.03268602 5.16343011 7 7 C5.02 7 3.04 7 1 7 C0.67 4.69 0.34 2.38 0 0 Z " fill="#7D0B12" transform="translate(367,199)"/>
<path d="M0 0 C1.98 0 3.96 0 6 0 C6.33 0.66 6.66 1.32 7 2 C7.66 1.67 8.32 1.34 9 1 C8.6875 2.9375 8.6875 2.9375 8 5 C7.01 5.33 6.02 5.66 5 6 C4.87625 5.071875 4.87625 5.071875 4.75 4.125 C4.18741541 1.81562433 4.18741541 1.81562433 1.9375 0.75 C1.298125 0.5025 0.65875 0.255 0 0 Z " fill="#800A0E" transform="translate(120,247)"/>
<path d="M0 0 C1.98 0 3.96 0 6 0 C6.33 2.64 6.66 5.28 7 8 C6.34 8 5.68 8 5 8 C3.1402289 5.40759181 1.42794577 2.85589153 0 0 Z " fill="#B60E1A" transform="translate(184,243)"/>
<path d="M0 0 C0.33 0 0.66 0 1 0 C1 4.62 1 9.24 1 14 C1.99 14 2.98 14 4 14 C3.67 14.66 3.34 15.32 3 16 C1.68 15.67 0.36 15.34 -1 15 C-0.67 10.05 -0.34 5.1 0 0 Z " fill="#9F161E" transform="translate(464,216)"/>
<path d="M0 0 C1.65 0 3.3 0 5 0 C5.33 0.66 5.66 1.32 6 2 C5.01 3.485 5.01 3.485 4 5 C2.68 4.67 1.36 4.34 0 4 C0 2.68 0 1.36 0 0 Z " fill="#F90C15" transform="translate(360,221)"/>
<path d="M0 0 C3.3 0 6.6 0 10 0 C10 0.66 10 1.32 10 2 C7.00468461 2.99843846 5.82744268 3.00732761 2.8125 2.5625 C1.554375 2.376875 0.29625 2.19125 -1 2 C-0.67 1.34 -0.34 0.68 0 0 Z " fill="#BC1D28" transform="translate(275,229)"/>
<path d="M0 0 C1.32 0.33 2.64 0.66 4 1 C4.80967438 3.91482778 5.21845993 5.46113217 4.0625 8.3125 C3.5365625 9.1478125 3.5365625 9.1478125 3 10 C2.67 10 2.34 10 2 10 C2 7.36 2 4.72 2 2 C1.34 2 0.68 2 0 2 C0 1.34 0 0.68 0 0 Z " fill="#970F1A" transform="translate(513,177)"/>
<path d="M0 0 C2 2 2 2 2.125 5.125 C2.08375 6.07375 2.0425 7.0225 2 8 C1.34 8 0.68 8 0 8 C0 8.99 0 9.98 0 11 C-0.66 11 -1.32 11 -2 11 C-1.835 10.4225 -1.67 9.845 -1.5 9.25 C-0.85537969 6.73335631 -0.85537969 6.73335631 -1 3 C-0.67 2.01 -0.34 1.02 0 0 Z " fill="#CF1119" transform="translate(436,215)"/>
<path d="M0 0 C2.25 -0.25 2.25 -0.25 5 0 C7.3125 2 7.3125 2 9 4 C6 5 6 5 3 4 C3 3.01 3 2.02 3 1 C2.01 0.67 1.02 0.34 0 0 Z " fill="#AF1017" transform="translate(379,192)"/>
<path d="M0 0 C3.3 0 6.6 0 10 0 C10 0.33 10 0.66 10 1 C8.88625 1.12375 7.7725 1.2475 6.625 1.375 C2.96896323 1.6465813 2.96896323 1.6465813 1 4 C-1.125 3.625 -1.125 3.625 -3 3 C-2.01 2.67 -1.02 2.34 0 2 C0 1.34 0 0.68 0 0 Z " fill="#DF1422" transform="translate(480,192)"/>
<path d="M0 0 C0.66 0 1.32 0 2 0 C2 0.99 2 1.98 2 3 C2.99 3.33 3.98 3.66 5 4 C5.6875 6.0625 5.6875 6.0625 6 8 C5.01 7.67 4.02 7.34 3 7 C3 6.34 3 5.68 3 5 C2.01 4.67 1.02 4.34 0 4 C0 2.68 0 1.36 0 0 Z " fill="#920D18" transform="translate(187,216)"/>
<path d="M0 0 C0.66 0 1.32 0 2 0 C1.75 2.375 1.75 2.375 1 5 C-1.0625 6.3125 -1.0625 6.3125 -3 7 C-3.33 5.68 -3.66 4.36 -4 3 C-2.68 3.33 -1.36 3.66 0 4 C0 2.68 0 1.36 0 0 Z " fill="#AB0E18" transform="translate(143,253)"/>
<path d="M0 0 C1.65 0.33 3.3 0.66 5 1 C4.01 2.485 4.01 2.485 3 4 C2.34 4 1.68 4 1 4 C1 4.66 1 5.32 1 6 C-0.32 5.67 -1.64 5.34 -3 5 C-2.01 5 -1.02 5 0 5 C0 3.35 0 1.7 0 0 Z " fill="#B41017" transform="translate(121,252)"/>
<path d="M0 0 C0.66 0.33 1.32 0.66 2 1 C-0.25 3.5625 -0.25 3.5625 -3 6 C-4.32 5.67 -5.64 5.34 -7 5 C-4.69 3.35 -2.38 1.7 0 0 Z " fill="#B01018" transform="translate(179,201)"/>
<path d="M0 0 C-0.33 1.32 -0.66 2.64 -1 4 C-2.98 4 -4.96 4 -7 4 C-6.34 3.67 -5.68 3.34 -5 3 C-5 2.34 -5 1.68 -5 1 C-2 0 -2 0 0 0 Z " fill="#DF1324" transform="translate(118,258)"/>
<path d="M0 0 C4.875 4.75 4.875 4.75 6 7 C5.01 7 4.02 7 3 7 C3 6.34 3 5.68 3 5 C2.01 4.67 1.02 4.34 0 4 C0 2.68 0 1.36 0 0 Z " fill="#9D0F16" transform="translate(193,224)"/>
<path d="M0 0 C3.33333333 0 6.66666667 0 10 0 C10 0.66 10 1.32 10 2 C8.35 2.66 6.7 3.32 5 4 C4.67 3.01 4.34 2.02 4 1 C1.98491642 0.26676204 1.98491642 0.26676204 0 0 Z " fill="#A50F17" transform="translate(470,192)"/>
<path d="M0 0 C1.32 0 2.64 0 4 0 C4 1.32 4 2.64 4 4 C2.35 3.67 0.7 3.34 -1 3 C-0.67 2.01 -0.34 1.02 0 0 Z " fill="#FC0A18" transform="translate(279,182)"/>
<path d="M0 0 C1.65 0 3.3 0 5 0 C5.33 1.32 5.66 2.64 6 4 C5.01 3.67 4.02 3.34 3 3 C2.01 3.66 1.02 4.32 0 5 C0 3.35 0 1.7 0 0 Z " fill="#F5101B" transform="translate(276,177)"/>
<path d="M0 0 C1.65 0 3.3 0 5 0 C5 0.66 5 1.32 5 2 C2 4 2 4 -1 4 C-0.67 2.68 -0.34 1.36 0 0 Z " fill="#AA101B" transform="translate(383,227)"/>
<path d="M0 0 C0 0.99 0 1.98 0 3 C-1.98 3.66 -3.96 4.32 -6 5 C-6.33 4.01 -6.66 3.02 -7 2 C-4.69 1.34 -2.38 0.68 0 0 Z " fill="#DF121E" transform="translate(310,193)"/>
<path d="M0 0 C0.66 0.33 1.32 0.66 2 1 C0.6875 3.5 0.6875 3.5 -1 6 C-1.99 6 -2.98 6 -4 6 C-3.67 5.01 -3.34 4.02 -3 3 C-2.34 3 -1.68 3 -1 3 C-0.67 2.01 -0.34 1.02 0 0 Z " fill="#9B0C14" transform="translate(138,138)"/>
</svg>
