<?xml version="1.0" encoding="UTF-8"?>
<svg version="1.1" xmlns="http://www.w3.org/2000/svg" width="1254" height="1254">
<path d="M0 0 C413.82 0 827.64 0 1254 0 C1254 413.82 1254 827.64 1254 1254 C840.18 1254 426.36 1254 0 1254 C0 840.18 0 426.36 0 0 Z " fill="#FDFDFD" transform="translate(0,0)"/>
<path d="M0 0 C60.06 0 120.12 0 182 0 C182 13.74893162 182 13.74893162 178.12890625 18.9765625 C175.85091742 23.0596013 176.29228399 27.50469274 177 32 C179.05986878 38.46448179 182.97598272 42.93481747 188.5625 46.75 C194.51010586 49.80005429 201.87538137 50.1704046 208.28515625 48.3515625 C214.46428597 45.5655965 219.57129958 40.37672485 222 34 C222.35535016 30.43425219 222.35535016 30.43425219 222.3125 26.5625 C222.32925781 25.26441406 222.34601563 23.96632813 222.36328125 22.62890625 C222.28793994 19.05157405 222.28793994 19.05157405 220.48901367 16.69897461 C218.62208501 13.31499423 218.69625553 11.02356742 218.8125 7.1875 C218.83957031 6.02605469 218.86664062 4.86460937 218.89453125 3.66796875 C218.94673828 2.34732422 218.94673828 2.34732422 219 1 C228.39708544 0.93036545 237.79408151 0.87712059 247.19136906 0.84456348 C251.55532535 0.82893451 255.91910458 0.80774708 260.28295898 0.77368164 C264.49751453 0.74098907 268.71190019 0.72312617 272.9265728 0.71536827 C274.53127146 0.70984248 276.13596126 0.69905197 277.74058723 0.68280983 C279.9953097 0.66090338 282.24933794 0.6580385 284.50415039 0.65942383 C285.78544327 0.65276199 287.06673615 0.64610016 288.38685608 0.63923645 C295.61220776 1.36067008 301.83687693 4.96229692 307 10 C311.05768948 15.63860746 314.13165719 20.78535356 314.11352539 27.83862305 C314.11344986 28.8194133 314.11337433 29.80020355 314.11329651 30.81071472 C314.10813522 31.86704605 314.10297394 32.92337738 314.09765625 34.01171875 C314.09553383 35.63676079 314.09553383 35.63676079 314.09336853 37.29463196 C314.08776559 40.75894925 314.07521258 44.2232022 314.0625 47.6875 C314.05748538 50.03450428 314.05292241 52.38150956 314.04882812 54.72851562 C314.03779521 60.48569908 314.0210542 66.24284494 314 72 C313.11877975 71.86206024 312.23755951 71.72412048 311.32963562 71.58200073 C297.87700276 69.83057141 283.69204095 68.82151586 272.30026436 77.29431534 C263.02123531 84.91803784 254.94703866 93.88316388 246.93151855 102.79217529 C243.3841917 106.69742271 239.73897037 110.50885335 236.09960938 114.328125 C231.38482154 119.28804507 226.7067325 124.27606831 222.08666515 129.32435417 C217.42523884 134.41564324 212.81920056 139.36643483 207.46122742 143.74728394 C205.79528983 145.09680565 205.79528983 145.09680565 204 147.5 C202.22360237 149.72049704 200.54367954 151.3200528 198.38975525 153.14759827 C193.98649786 156.96166309 189.86688983 161.00591997 185.76391602 165.13842773 C184.98406845 165.91973557 184.20422089 166.7010434 183.40074158 167.50602722 C181.72238939 169.18816083 180.04519253 170.87144784 178.36905098 172.55578423 C175.71993521 175.2177293 173.06765017 177.87647997 170.41453552 180.53443909 C164.79437221 186.16598607 159.17814921 191.80145276 153.5625 197.4375 C147.0301477 203.99350604 140.49611867 210.54782242 133.95792961 217.09800911 C131.3383679 219.72407755 128.72182118 222.35312549 126.10536194 224.98228455 C124.51382856 226.57744722 122.92215643 228.17247147 121.33032227 229.76733398 C120.59842682 230.50439575 119.86653137 231.24145752 119.11245728 232.00085449 C118.44951157 232.6638707 117.78656586 233.3268869 117.10353088 234.00999451 C116.52489572 234.59085029 115.94626055 235.17170607 115.35009098 235.77016354 C114 237 114 237 113 237 C113 181.23 113 125.46 113 68 C99.47 68 85.94 68 72 68 C72.00444122 72.04497742 72.00888245 76.08995483 72.01345825 80.25750732 C72.05327574 117.37048484 72.08312359 154.48345969 72.10213066 191.59645389 C72.104632 196.4629029 72.10722065 201.32935185 72.10986328 206.19580078 C72.1103879 207.16460286 72.11091252 208.13340493 72.11145304 209.13156465 C72.12015017 224.80802559 72.13591634 240.48447182 72.15430559 256.16092405 C72.17302389 272.25235766 72.18412081 288.34378358 72.18817699 304.43522763 C72.19091804 314.3605101 72.19956832 324.28575101 72.21583293 334.21102068 C72.22642363 341.02174025 72.22959591 347.83243841 72.22700275 354.64316562 C72.22572471 358.56964738 72.22765205 362.49605662 72.23841095 366.42252541 C72.2482071 370.02411465 72.24859403 373.62558322 72.24179779 377.22717825 C72.24056445 379.1330469 72.24913299 381.03891433 72.25816262 382.94476199 C72.22192814 393.46357004 70.75879117 403.44228467 67.6875 413.5 C67.46876221 414.2228418 67.25002441 414.94568359 67.0246582 415.69042969 C58.58324165 442.96688934 39.97646264 466.90123568 15 481 C10.76676227 483.23041558 6.41336921 485.15534959 2 487 C0.88109375 487.5053125 -0.2378125 488.010625 -1.390625 488.53125 C-5.12186918 490.04959179 -8.84236192 491.13138497 -12.75 492.0625 C-13.4510083 492.23241455 -14.1520166 492.4023291 -14.87426758 492.57739258 C-24.87283082 494.96498942 -34.71172002 496.60465261 -45 497 C-45.86399414 497.03399902 -46.72798828 497.06799805 -47.61816406 497.10302734 C-72.1395893 497.91930324 -98.84301108 495.53977264 -121 484 C-117.97736667 481.98491111 -115.49649721 481.07672143 -112.0625 479.9375 C-91.78412643 472.87640123 -73.29305293 463.09052584 -57 449 C-56.18402344 448.30519531 -55.36804688 447.61039063 -54.52734375 446.89453125 C-44.0652163 437.75836122 -35.53054497 427.63300603 -28 416 C-27.05640625 414.58460938 -27.05640625 414.58460938 -26.09375 413.140625 C-22.46955103 407.38641436 -19.88757871 401.53121129 -17.6875 395.125 C-17.44491455 394.43059814 -17.2023291 393.73619629 -16.95239258 393.02075195 C-13.38644436 381.98257291 -12.70173814 370.44945278 -12.7215271 358.92727661 C-12.7157347 357.69024896 -12.7099423 356.4532213 -12.70397437 355.17870796 C-12.69004205 351.78980557 -12.68475429 348.40110078 -12.68332577 345.01218438 C-12.67959823 341.34093441 -12.66442653 337.66972842 -12.65071106 333.99850464 C-12.62853874 327.65267534 -12.61346548 321.30686189 -12.60334396 314.96100235 C-12.58869987 305.78619005 -12.56314734 296.61143304 -12.53501268 287.43665336 C-12.48964828 272.54779012 -12.4529909 257.65891887 -12.421875 242.77001953 C-12.39164691 228.31492713 -12.35727719 213.85985425 -12.31738281 199.40478516 C-12.31492126 198.51236461 -12.31245972 197.61994407 -12.30992357 196.70048048 C-12.29754815 192.22304779 -12.28509177 187.74561534 -12.27259517 183.26818299 C-12.16918252 146.17881182 -12.08154437 109.08942697 -12 72 C-51.27 72 -90.54 72 -131 72 C-131 17.26470588 -131 17.26470588 -122 8 C-112.87449414 -0.19139896 -101.58231362 0.72148589 -90.02734375 0.8046875 C-88.49321173 0.80842435 -86.95907729 0.81126814 -85.42494202 0.81326294 C-81.41530602 0.82084658 -77.40581825 0.84044885 -73.39624023 0.8626709 C-69.29347742 0.88324378 -65.19069032 0.89228897 -61.08789062 0.90234375 C-53.05852624 0.9237005 -45.02928163 0.95777162 -37 1 C-36.94585181 2.92677302 -36.90714023 4.85398424 -36.875 6.78125 C-36.85179687 7.85439453 -36.82859375 8.92753906 -36.8046875 10.03320312 C-36.99552451 12.93201731 -37.32863997 14.19817758 -39 16.5 C-42.22061237 21.17619162 -41.6006749 26.56426294 -41 32 C-39.20074457 38.09747673 -35.71730234 43.7376418 -30.18359375 47.10546875 C-23.63408707 49.92374132 -16.43276937 50.03551721 -9.6875 47.8125 C-3.7160058 45.24127312 -0.26029772 40.47264261 3 35 C4.5470652 30.05144047 5.28813495 23.84064695 3.10546875 19.02734375 C2.74066406 18.42019531 2.37585938 17.81304687 2 17.1875 C0 13 0 13 0 0 Z " fill="#1B1B1F" transform="translate(533,311)"/>
<path d="M0 0 C2.38464381 0.01867041 4.7693262 0.03289597 7.15402222 0.0428772 C13.40543062 0.08090832 19.65448479 0.17900601 25.90496826 0.28991699 C32.29309242 0.39254317 38.68160013 0.43795606 45.0703125 0.48828125 C57.5869672 0.59526219 70.10188096 0.765748 82.6171875 0.9765625 C81.68403629 2.07593741 80.74931666 3.17398114 79.81396484 4.27148438 C79.29361664 4.88310425 78.77326843 5.49472412 78.2371521 6.12487793 C75.69385285 9.03197107 72.98232151 11.75628453 70.2421875 14.4765625 C69.71625 15.00636719 69.1903125 15.53617187 68.6484375 16.08203125 C65.82242422 18.90121841 62.93216143 21.5929032 59.89990234 24.18945312 C55.64075913 27.90220494 51.64917959 31.8334374 47.6796875 35.8515625 C46.59312866 36.94380127 46.59312866 36.94380127 45.48461914 38.05810547 C43.19300447 40.36181896 40.90468098 42.66875724 38.6171875 44.9765625 C35.59933669 48.02121029 32.57805334 51.06239217 29.5546875 54.1015625 C28.87736572 54.78718262 28.20004395 55.47280273 27.50219727 56.17919922 C24.33482404 59.36256337 21.13274703 62.43959292 17.7265625 65.3671875 C12.88900485 69.54189683 8.42399157 74.06350067 3.9296875 78.6015625 C3.02774658 79.50729004 2.12580566 80.41301758 1.1965332 81.34619141 C-1.66569814 84.22055819 -4.52477052 87.0980319 -7.3828125 89.9765625 C-11.15055583 93.77131588 -14.92196795 97.56237631 -18.6953125 101.3515625 C-19.54762451 102.21217285 -20.39993652 103.0727832 -21.27807617 103.95947266 C-25.56522502 108.26400929 -29.92390022 112.3903151 -34.53100586 116.34960938 C-37.48926388 118.94866428 -40.24556219 121.73483642 -43.0078125 124.5390625 C-43.59900879 125.13404541 -44.19020508 125.72902832 -44.79931641 126.34204102 C-46.6629775 128.21775907 -48.52332092 130.09671153 -50.3828125 131.9765625 C-64.94203596 146.69519352 -64.94203596 146.69519352 -70.78320312 151.60180664 C-73.46907375 153.91013043 -75.91083386 156.44278439 -78.3828125 158.9765625 C-76.73354285 163.08980127 -73.77078179 165.95528008 -70.7578125 169.1015625 C-66.36517682 173.7665691 -62.25004551 178.5319665 -58.3046875 183.5859375 C-55.56583189 186.99280667 -52.60959267 190.18608423 -49.6640625 193.4140625 C-47.34252429 196.02181775 -45.13750895 198.69697394 -42.9453125 201.4140625 C-39.86944662 205.21743753 -36.69528084 208.87738902 -33.3828125 212.4765625 C-29.26902341 216.9464137 -25.41193953 221.56701143 -21.59765625 226.29296875 C-19.42648423 228.92364807 -17.18039893 231.45598674 -14.8828125 233.9765625 C-11.78726054 237.37254932 -8.83130043 240.83827781 -5.9453125 244.4140625 C-2.86944662 248.21743753 0.30471916 251.87738902 3.6171875 255.4765625 C7.63693286 259.84826713 11.41706945 264.35443136 15.1484375 268.97265625 C19.64141586 274.4395872 24.32464813 279.74332041 28.97070312 285.08007812 C31.55356159 288.05511439 34.11775664 291.0460031 36.6796875 294.0390625 C37.17057861 294.61245361 37.66146973 295.18584473 38.16723633 295.77661133 C39.15603953 296.93186768 40.14472799 298.08722226 41.13330078 299.24267578 C43.12614221 301.57126411 45.12083168 303.89826512 47.11572266 306.22509766 C48.11430933 307.38995306 49.11268278 308.55499129 50.11083984 309.72021484 C52.64431027 312.67744772 55.18076374 315.63203308 57.72265625 318.58203125 C62.22599448 323.81329661 66.70748493 329.05145495 71.0546875 334.4140625 C78.99270062 344.18170841 87.31479565 353.64244008 95.8125 362.92578125 C100.6171875 368.38565341 100.6171875 368.38565341 100.6171875 370.9765625 C86.69168083 371.23408391 72.76654578 371.42703586 58.8391428 371.54649639 C52.37149389 371.60384094 45.90544735 371.68158225 39.4387207 371.80639648 C33.19456754 371.92615688 26.95195263 371.99173781 20.70673943 372.02021217 C18.3275525 372.0404957 15.94844734 372.08010813 13.56991768 372.13959312 C-6.08034436 372.61136323 -6.08034436 372.61136323 -10.79214478 368.5786438 C-13.08509722 365.80397117 -14.74019136 363.16649484 -16.3828125 359.9765625 C-17.33450652 358.76863914 -18.31991691 357.58571056 -19.3515625 356.4453125 C-24.32513193 350.61211379 -29.2309559 344.73455775 -34.0703125 338.7890625 C-36.64427642 335.65856584 -39.25850336 332.56483789 -41.8828125 329.4765625 C-46.00264549 324.62836125 -50.05077214 319.72810405 -54.06640625 314.79296875 C-56.66068516 311.63871058 -59.29887515 308.5245327 -61.9453125 305.4140625 C-65.81523052 300.86371934 -69.58241147 296.24823415 -73.29296875 291.56640625 C-76.21501565 287.94525281 -79.23102736 284.40701681 -82.24609375 280.86328125 C-85.16285763 277.43084641 -88.03974676 273.97063435 -90.8828125 270.4765625 C-94.63198739 265.87043335 -98.45466438 261.3326665 -102.30126953 256.80810547 C-105.16128188 253.4380526 -107.97536983 250.03629942 -110.7578125 246.6015625 C-115.96487729 240.20297117 -121.39346937 234.00057827 -126.81396484 227.78320312 C-129.35194338 224.86053877 -131.86831459 221.91943133 -134.3828125 218.9765625 C-144.37056545 223.57857707 -155.54577173 232.85403584 -160.3828125 242.9765625 C-163.34841604 253.22338457 -162.19648177 264.52694046 -161.6088562 275.04212952 C-161.03339649 286.48241393 -162.64388105 297.64876802 -166.4453125 308.4765625 C-166.74985352 309.35892578 -167.05439453 310.24128906 -167.36816406 311.15039062 C-172.47205906 325.33870575 -180.06946989 337.04411733 -190.3828125 347.9765625 C-191.08792969 348.72421875 -191.79304687 349.471875 -192.51953125 350.2421875 C-209.51589548 366.68819327 -231.75609413 371.22930294 -254.5703125 371.0390625 C-256.14135742 371.03229492 -256.14135742 371.03229492 -257.74414062 371.02539062 C-260.29042786 371.01376374 -262.8365871 370.99742531 -265.3828125 370.9765625 C-262.64339481 368.10499098 -259.7507711 366.3048147 -256.3203125 364.2890625 C-231.42928715 349.23097511 -213.51109494 326.39856511 -203.5703125 299.2265625 C-203.29227783 298.49034668 -203.01424316 297.75413086 -202.7277832 296.99560547 C-197.44050049 281.72767126 -197.00159868 265.84608315 -197.30834007 249.8760128 C-197.38443417 245.53022227 -197.40401644 241.18464616 -197.42808247 236.83830738 C-197.47352702 228.79573817 -197.54257332 220.7548223 -197.70141602 212.71362305 C-197.8107403 207.06947182 -197.85072864 201.42837322 -197.84646034 195.78321266 C-197.85754172 193.65373303 -197.89362203 191.52421458 -197.95653343 189.3956356 C-198.47844601 171.15491033 -198.47844601 171.15491033 -191.67648029 163.7964983 C-188.72319322 160.98862525 -185.61031133 158.45924685 -182.3828125 155.9765625 C-180.99675381 154.77399884 -179.61717293 153.56383567 -178.25 152.33984375 C-177.64124023 151.82244629 -177.03248047 151.30504883 -176.40527344 150.77197266 C-172.13818989 146.98393157 -168.16906546 142.8692817 -164.15130615 138.82022095 C-162.4706701 137.12663388 -160.78676621 135.43635473 -159.10205078 133.74682617 C-155.52612713 130.15956437 -151.95416818 126.5683713 -148.3828125 122.9765625 C-144.23901427 118.80903277 -140.09353589 114.64320275 -135.94378662 110.4815979 C-134.29783144 108.82923718 -132.65495605 107.17385785 -131.01220703 105.51831055 C-129.98745556 104.48992126 -128.96256044 103.46167508 -127.9375 102.43359375 C-127.05562012 101.54647705 -126.17374023 100.65936035 -125.26513672 99.74536133 C-123.04767341 97.61523669 -120.81001625 95.58959808 -118.48629761 93.58103943 C-114.54456516 90.16076026 -110.84116233 86.557003 -107.17236328 82.84790039 C-106.50141129 82.17388184 -105.83045929 81.49986328 -105.13917542 80.80541992 C-103.69820768 79.3573554 -102.25837314 77.9081625 -100.81958389 76.45793343 C-98.54442878 74.16526312 -96.26563963 71.87626239 -93.98580933 69.58824158 C-87.51000419 63.0880758 -81.04000755 56.58215023 -74.57421875 50.07202148 C-70.60755628 46.07866324 -66.63610648 42.09011913 -62.66161728 38.10455132 C-61.14859444 36.58530561 -59.63747358 35.06416333 -58.1282692 33.54112434 C-56.02896038 31.42271901 -53.92367403 29.31043477 -51.81689453 27.19946289 C-51.19145248 26.56525925 -50.56601044 25.9310556 -49.9216156 25.27763367 C-45.61071146 20.9765625 -45.61071146 20.9765625 -43.3828125 20.9765625 C-43.0528125 19.9865625 -42.7228125 18.9965625 -42.3828125 17.9765625 C-40.61361171 16.23507765 -38.71183463 14.7261987 -36.77780151 13.17001343 C-34.31245948 11.07137978 -34.31245948 11.07137978 -32.60696411 8.43887329 C-24.40295403 -2.50060548 -12.45360861 -0.2864985 0 0 Z " fill="#18181D" transform="translate(842.3828125,435.0234375)"/>
<path d="M0 0 C24.75 0 49.5 0 75 0 C75.495 12.375 75.495 12.375 76 25 C76.68767844 31.87678441 77.24104465 36.84782737 79.6875 43 C79.95151611 43.68280029 80.21553223 44.36560059 80.48754883 45.0690918 C82.97651828 51.30735231 85.80953767 57.88390742 90.67578125 62.63671875 C92 64 92 64 92 66 C92.58265625 66.27070312 93.1653125 66.54140625 93.765625 66.8203125 C95.98916993 67.99428203 97.78741587 69.30979861 99.75 70.875 C103.6311255 73.82896774 107.53947009 76.04577963 112 78 C112.93779297 78.41572266 112.93779297 78.41572266 113.89453125 78.83984375 C123.35181066 82.71135732 133.07835277 83.29359386 143.1875 83.125 C144.23486328 83.11597656 145.28222656 83.10695313 146.36132812 83.09765625 C148.90780514 83.07440075 151.45377031 83.04172569 154 83 C135.09777051 109.2852083 104.90810846 123.18816006 75 133 C74.30326172 133.23976563 73.60652344 133.47953125 72.88867188 133.7265625 C67.92841279 135.33182434 65.00209024 134.93627161 60.34375 132.7578125 C52.05934105 128.00110516 45.07490763 122.38330503 38 116 C36.92298828 115.06607422 36.92298828 115.06607422 35.82421875 114.11328125 C15.64529271 95.52193118 1.78442487 64.86837109 -0.17428589 37.5710907 C-0.2283111 35.13606583 -0.22598128 32.70882879 -0.1953125 30.2734375 C-0.19329834 29.49718018 -0.19128418 28.72092285 -0.18920898 27.92114258 C-0.17889036 25.07236667 -0.15097018 22.22367622 -0.125 19.375 C-0.08375 12.98125 -0.0425 6.5875 0 0 Z " fill="#1D1D20" transform="translate(330,651)"/>
<path d="M0 0 C7.14414839 6.07026532 12.65751539 13.36214983 18.21875 20.84765625 C18.88003906 21.71519531 19.54132813 22.58273438 20.22265625 23.4765625 C33.36312327 41.32055239 42.18124771 65.86078681 42.40820312 88.05224609 C42.42064308 89.07549484 42.42064308 89.07549484 42.43333435 90.11941528 C42.45060763 91.58655985 42.46580791 93.05373005 42.47911072 94.52091599 C42.50029191 96.84056214 42.52729424 99.16007759 42.55578613 101.47964478 C42.62529707 107.23225298 42.68519908 112.98495294 42.74481201 118.7376709 C42.79566544 123.61604403 42.85041719 128.49434128 42.91062927 133.37260818 C42.93725067 135.66215031 42.95802495 137.95169952 42.9786377 140.24130249 C42.99522943 141.6340164 43.01210026 143.02672702 43.02929688 144.41943359 C43.04182495 145.63964203 43.05435303 146.85985046 43.06726074 148.11703491 C42.90950454 150.76069496 42.90950454 150.76069496 44.21875 151.84765625 C44.74246764 154.9899621 44.7354836 157.04475688 42.984375 159.765625 C38.95572669 164.60199735 38.95572669 164.60199735 35.21875 165.84765625 C28.15466048 166.41734089 28.15466048 166.41734089 24.34375 164.09765625 C21.07093568 160.63232344 20.27684699 158.9902303 20.03125 154.16015625 C20.21875 150.84765625 20.21875 150.84765625 21.21875 149.84765625 C21.33352446 148.08241435 21.37839681 146.31258526 21.39575195 144.54370117 C21.40858719 143.40708542 21.42142242 142.27046967 21.43464661 141.09941101 C21.44203354 139.85488663 21.44942047 138.61036224 21.45703125 137.328125 C21.46913887 135.40375359 21.46913887 135.40375359 21.48149109 133.44050598 C21.49656132 130.70569999 21.50636874 127.97092021 21.51391602 125.23608398 C21.52266039 122.46925024 21.54324109 119.7029379 21.57543945 116.9362793 C21.99428597 80.15161598 14.57511494 48.34641349 -11.28125 20.97265625 C-22.50774125 10.42183345 -36.72628935 3.721448 -51.78125 0.84765625 C-52.57764893 0.68064209 -53.37404785 0.51362793 -54.19458008 0.34155273 C-60.83738628 -0.98511916 -67.20080402 -1.5036302 -73.96875 -1.46484375 C-74.96543701 -1.46137939 -75.96212402 -1.45791504 -76.98901367 -1.4543457 C-85.55862144 -1.32954894 -93.46613787 -0.22386179 -101.78125 1.84765625 C-103.08642578 2.13769531 -103.08642578 2.13769531 -104.41796875 2.43359375 C-128.03691959 8.44569033 -147.95303528 25.87099875 -160.17993164 46.40405273 C-164.37575231 53.66127149 -168.0531194 60.78199151 -170.40625 68.84765625 C-170.60992188 69.48832031 -170.81359375 70.12898438 -171.0234375 70.7890625 C-174.71194665 83.24960302 -175.06294864 96.31036365 -174.8359375 109.19921875 C-174.82198659 110.59685871 -174.80957972 111.99451482 -174.7986145 113.3921814 C-174.75046821 119.23849236 -174.67800141 125.08434402 -174.58935547 130.93017578 C-174.53567493 134.54067549 -174.50168681 138.15093634 -174.47961807 141.76176071 C-174.46132422 143.78152246 -174.42058556 145.80104117 -174.37936401 147.82046509 C-174.31720826 159.12697645 -174.31720826 159.12697645 -178.78125 163.84765625 C-181.74778781 166.17850739 -185.02038325 166.32178013 -188.75 166.23828125 C-192.41944116 165.53261949 -194.20172665 163.48859683 -196.78125 160.84765625 C-199.07529844 157.40658359 -199.04418056 155.87925816 -198.78125 151.84765625 C-198.45125 151.51765625 -198.12125 151.18765625 -197.78125 150.84765625 C-197.66803481 148.89736442 -197.624402 146.94300542 -197.60766602 144.98950195 C-197.59417618 143.73341629 -197.58068634 142.47733063 -197.56678772 141.18318176 C-197.56172777 140.50632639 -197.55666782 139.82947102 -197.55145454 139.13210487 C-197.5350275 137.00678008 -197.51177756 134.88163097 -197.48655701 132.75639343 C-197.41591082 126.71097661 -197.35631037 120.66547916 -197.30444336 114.61987305 C-197.27224216 110.92274437 -197.23084683 107.22580337 -197.18424797 103.52882957 C-197.16843979 102.13093722 -197.15602331 100.73300154 -197.14734077 99.33504677 C-197.05091313 84.00168733 -194.86476798 70.25799098 -189.78125 55.84765625 C-189.43449219 54.8421875 -189.08773438 53.83671875 -188.73046875 52.80078125 C-183.47645579 38.96839803 -174.74411838 25.71773946 -164.78125 14.84765625 C-164.34232422 14.36635254 -163.90339844 13.88504883 -163.45117188 13.38916016 C-151.75002638 0.70749447 -138.47403425 -8.10202159 -122.78125 -15.15234375 C-121.71390625 -15.63574219 -120.6465625 -16.11914062 -119.546875 -16.6171875 C-80.56104737 -32.89426528 -33.00344484 -25.54058723 0 0 Z " fill="#19191C" transform="translate(700.78125,181.15234375)"/>
<path d="M0 0 C15 0 15 0 18.16015625 2.39453125 C18.78792969 3.52246094 19.41570312 4.65039062 20.0625 5.8125 C20.84075098 7.10286432 21.62357196 8.3904798 22.41015625 9.67578125 C22.81637207 10.37268066 23.22258789 11.06958008 23.64111328 11.78759766 C26.15679729 15.88338071 29.11143129 19.66298637 32 23.5 C33.19204725 25.11184604 34.38217401 26.72511429 35.5703125 28.33984375 C36.14555664 29.12085449 36.72080078 29.90186523 37.31347656 30.70654297 C39.84576034 34.15012633 42.37048835 37.59865786 44.875 41.0625 C45.50921875 41.92875 45.50921875 41.92875 46.15625 42.8125 C49 46.76860119 49 46.76860119 49 49 C49.66 49 50.32 49 51 49 C51 32.83 51 16.66 51 0 C54.96 0 58.92 0 63 0 C63 22.77 63 45.54 63 69 C50 69 50 69 46.23828125 65.7734375 C45.21915283 64.33743829 44.24498044 62.86871909 43.3125 61.375 C42.77979492 60.60389893 42.24708984 59.83279785 41.69824219 59.03833008 C40.61442046 57.46399957 39.54823159 55.87737672 38.50048828 54.27880859 C36.73613766 51.59926927 34.8759849 49.00163056 32.9934082 46.40454102 C31.76677007 44.71065804 30.55760896 43.00546146 29.3515625 41.296875 C24.44055357 34.374769 19.30161299 27.62701624 14 21 C13.67 36.84 13.34 52.68 13 69 C8.71 69 4.42 69 0 69 C0 46.23 0 23.46 0 0 Z " fill="#0B0B0C" transform="translate(366,867)"/>
<path d="M0 0 C13 0 13 0 16.25 2.75 C17.19432553 4.14838175 18.10789297 5.5677405 19 7 C20.34307442 8.79999664 21.69853259 10.59078317 23.0625 12.375 C23.825625 13.40238281 24.58875 14.42976562 25.375 15.48828125 C27.840688 18.80107091 30.35084978 22.07859566 32.86621094 25.35375977 C37.21839673 31.02074665 41.56147385 36.69409233 45.8125 42.4375 C46.43769531 43.28183594 47.06289063 44.12617187 47.70703125 44.99609375 C49 47 49 47 49 49 C49.66 49 50.32 49 51 49 C51 32.83 51 16.66 51 0 C54.96 0 58.92 0 63 0 C63 22.77 63 45.54 63 69 C50 69 50 69 46.16015625 65.73046875 C45.0845742 64.2463997 44.05353129 62.72931538 43.0625 61.1875 C42.4938623 60.38376953 41.92522461 59.58003906 41.33935547 58.75195312 C40.14017208 57.05395943 38.95810421 55.34376302 37.79248047 53.62255859 C35.42808745 50.16324099 32.93864437 46.80516756 30.43969727 43.44238281 C28.66600419 41.05518713 26.91056126 38.65536344 25.15625 36.25390625 C21.99361814 31.95458506 18.69130573 27.80199364 15.2578125 23.71484375 C14 22 14 22 14 20 C13.34 20 12.68 20 12 20 C12 36.17 12 52.34 12 69 C8.04 69 4.08 69 0 69 C0 46.23 0 23.46 0 0 Z " fill="#09090B" transform="translate(944,867)"/>
<path d="M0 0 C4.29 0 8.58 0 13 0 C13 9.24 13 18.48 13 28 C24.55 28 36.1 28 48 28 C48 18.76 48 9.52 48 0 C52.29 0 56.58 0 61 0 C61 22.77 61 45.54 61 69 C56.71 69 52.42 69 48 69 C48 59.1 48 49.2 48 39 C36.45 39 24.9 39 13 39 C13 48.9 13 58.8 13 69 C8.71 69 4.42 69 0 69 C0 46.23 0 23.46 0 0 Z " fill="#09090A" transform="translate(628,867)"/>
<path d="M0 0 C4.29 0 8.58 0 13 0 C13.33 10.23 13.66 20.46 14 31 C16.97 27.7515625 16.97 27.7515625 20 24.4375 C21.96954271 22.34278834 23.95309823 20.26231278 25.93847656 18.18261719 C27.29939439 16.74175914 28.64555208 15.28679738 29.97558594 13.81738281 C41.6604639 0.94124293 41.6604639 0.94124293 48.5703125 0.0625 C52.47034111 -0.08371929 56.16437731 0.31142412 60 1 C52.99463733 9.52003568 45.18412883 17.21781916 36.79296875 24.36328125 C33.89681297 27.00704872 31.47747482 29.96509334 29 33 C29.66 33 30.32 33 31 33 C32.3327188 34.46690559 33.58913869 36.00322501 34.8125 37.5625 C38.63379093 42.33911367 42.54838963 47.00923767 46.5625 51.625 C47.39394531 52.5835791 47.39394531 52.5835791 48.2421875 53.56152344 C52.00244961 57.88537933 55.8184762 62.15402063 59.70703125 66.36328125 C61 68 61 68 61 70 C47.95089805 71.91561472 47.95089805 71.91561472 43.30761719 68.90136719 C40.12229617 65.91474066 37.66850304 62.37907843 35.23046875 58.77490234 C33.33489098 56.04060664 31.20298939 53.54704338 29.0625 51 C26.9709589 48.43541876 24.89697745 45.86692133 22.87109375 43.25 C21.19794475 40.93157316 21.19794475 40.93157316 19 40 C18.5978125 40.8971875 18.5978125 40.8971875 18.1875 41.8125 C17 44 17 44 15.45776367 45.2902832 C13.41331354 47.68808663 13.57082317 49.42288417 13.48828125 52.54296875 C13.45283203 53.61611328 13.41738281 54.68925781 13.38085938 55.79492188 C13.34702148 57.47424805 13.34702148 57.47424805 13.3125 59.1875 C13.27833984 60.31865234 13.24417969 61.44980469 13.20898438 62.61523438 C13.1264443 65.40980557 13.06154765 68.20488768 13 71 C8.71 71 4.42 71 0 71 C0 47.57 0 24.14 0 0 Z " fill="#0E0E0F" transform="translate(786,866)"/>
<path d="M0 0 C2.4683042 1.53814325 4.72844515 3.17102798 6.85546875 5.15625 C5.32837912 8.59220166 3.2561983 11.27537454 0.85546875 14.15625 C-1.51656484 13.23804345 -3.84002288 12.31613215 -6.09375 11.1328125 C-12.11973272 8.0819559 -17.42255328 7.24931646 -24.14453125 8.15625 C-27.26391094 9.52877707 -28.63430275 10.135793 -30.14453125 13.15625 C-30.64495271 16.07163029 -30.64495271 16.07163029 -30.14453125 19.15625 C-25.90921424 23.6809365 -20.74798136 24.58541489 -14.95703125 26.03125 C3.89731007 31.12300379 3.89731007 31.12300379 8.48046875 38.96875 C10.53804299 44.11268559 10.87263136 49.08300467 9.125 54.36328125 C6.27340841 60.63678274 1.85669835 63.92481868 -4.14453125 67.15625 C-13.99777067 70.13078868 -27.60171744 69.48552059 -36.93359375 65.37890625 C-40.24819337 63.54592095 -43.18552406 61.52345575 -46.14453125 59.15625 C-44.75299381 54.72863086 -42.62381639 52.2006245 -39.14453125 49.15625 C-38.48453125 49.15625 -37.82453125 49.15625 -37.14453125 49.15625 C-36.37109375 50.0225 -36.37109375 50.0225 -35.58203125 50.90625 C-29.58217073 56.44458279 -22.98691222 57.82119496 -14.9609375 57.5546875 C-10.82499243 56.9695746 -8.46601096 55.66581245 -5.14453125 53.15625 C-3.70717879 50.28154507 -3.76280476 48.33730412 -4.14453125 45.15625 C-9.1065751 39.74602154 -16.69306063 38.7422225 -23.50976562 36.88867188 C-30.98107017 34.76166205 -37.0982151 32.20256615 -42.64453125 26.65625 C-45.15532999 20.79771961 -45.60182332 13.97744441 -43.296875 7.93359375 C-34.69260811 -5.33739417 -13.13331571 -6.50854584 0 0 Z " fill="#0E0E10" transform="translate(575.14453125,868.84375)"/>
<path d="M0 0 C4.29 0 8.58 0 13 0 C13.09924142 7.38318 13.17164627 14.76596744 13.21972656 22.1496582 C13.23978062 24.65884164 13.26703085 27.16797869 13.30175781 29.67700195 C13.35054754 33.29389933 13.37303182 36.9101761 13.390625 40.52734375 C13.41127014 41.64020248 13.43191528 42.75306122 13.45318604 43.89964294 C13.45534213 51.46728536 12.4793263 57.94397218 7.41705322 63.84532166 C1.3432594 69.87037368 -6.35542678 71.14528963 -14.625 71.375 C-23.18038047 71.1437735 -28.72778615 68.80179781 -35 63 C-34.42110619 59.71245489 -33.45171589 58.06327505 -31.0625 55.75 C-30.27552734 54.96882812 -30.27552734 54.96882812 -29.47265625 54.171875 C-28 53 -28 53 -26 53 C-24.33333333 54.66666667 -22.66666667 56.33333333 -21 58 C-16.00454547 59.66515151 -10.99161868 59.86592117 -6.125 57.75 C-3.18417456 55.32814376 -1.22653639 53.39488368 -0.60127258 49.54486084 C-0.59016953 48.62996887 -0.57906647 47.7150769 -0.56762695 46.77246094 C-0.54783279 45.73168396 -0.52803864 44.69090698 -0.50764465 43.61859131 C-0.50125473 42.50179993 -0.49486481 41.38500854 -0.48828125 40.234375 C-0.47033005 39.08584045 -0.45237885 37.93730591 -0.43388367 36.75396729 C-0.37970659 33.08601552 -0.34586031 29.41819445 -0.3125 25.75 C-0.27933356 23.26300262 -0.24484454 20.7760225 -0.20898438 18.2890625 C-0.12397542 12.19280251 -0.05719891 6.09658179 0 0 Z " fill="#0E0F10" transform="translate(251,866)"/>
<path d="M0 0 C4.29 0 8.58 0 13 0 C14 1 14 1 14.12025452 3.77772522 C14.1169236 5.63970802 14.1169236 5.63970802 14.11352539 7.53930664 C14.11367142 8.22220261 14.11381744 8.90509857 14.1139679 9.60868835 C14.11326876 11.87587614 14.1054764 14.14298274 14.09765625 16.41015625 C14.09579207 17.97814387 14.09436817 19.54613207 14.09336853 21.11412048 C14.08954334 25.24876503 14.07971306 29.38337466 14.06866455 33.51800537 C14.05845044 37.73400398 14.05387091 41.95000822 14.04882812 46.16601562 C14.03809078 54.44402826 14.02049399 62.72200577 14 71 C9.38 71 4.76 71 0 71 C0 47.57 0 24.14 0 0 Z " fill="#181819" transform="translate(308,866)"/>
<path d="M0 0 C4.29 0 8.58 0 13 0 C13 23.1 13 46.2 13 70 C8.71 70 4.42 70 0 70 C0 46.9 0 23.8 0 0 Z " fill="#0E0E10" transform="translate(1052,867)"/>
<path d="M0 0 C4.29 0 8.58 0 13 0 C13 23.1 13 46.2 13 70 C8.71 70 4.42 70 0 70 C0 46.9 0 23.8 0 0 Z " fill="#101012" transform="translate(475,867)"/>
<path d="M0 0 C4.29 0 8.58 0 13 0 C13 22.77 13 45.54 13 69 C8.71 69 4.42 69 0 69 C0 46.23 0 23.46 0 0 Z " fill="#0B0B0C" transform="translate(886,867)"/>
<path d="M0 0 C32.34 0 64.68 0 98 0 C98 1.32 98 2.64 98 4 C65.66 4 33.32 4 0 4 C0 2.68 0 1.36 0 0 Z " fill="#272727" transform="translate(967,982)"/>
<path d="M0 0 C32.34 0 64.68 0 98 0 C98 1.32 98 2.64 98 4 C65.66 4 33.32 4 0 4 C0 2.68 0 1.36 0 0 Z " fill="#272727" transform="translate(216,982)"/>
<path d="M0 0 C10.31056419 -0.36823444 10.31056419 -0.36823444 13.34765625 1.25390625 C15 3 15 3 15.35546875 5.0078125 C15.27232422 6.05582031 15.27232422 6.05582031 15.1875 7.125 C15.125625 8.40375 15.06375 9.6825 15 11 C15.33 11.33 15.66 11.66 16 12 C15.75 15.4375 15.75 15.4375 15 19 C10.25368713 22.16420858 5.63243123 21.12112755 0 21 C0 14.07 0 7.14 0 0 Z " fill="#2B2B2B" transform="translate(447,975)"/>
<path d="M0 0 C10.34052758 -0.36930456 10.34052758 -0.36930456 13.34375 1.3125 C15 3 15 3 15.25 6.1875 C15.1675 7.115625 15.085 8.04375 15 9 C14.34 9 13.68 9 13 9 C13 9.66 13 10.32 13 11 C13.99 11.33 14.98 11.66 16 12 C16.25 14.8125 16.25 14.8125 16 18 C13.67946555 20.40978578 12.33624266 20.96733394 8.984375 21.29296875 C7.91703125 21.25816406 6.8496875 21.22335937 5.75 21.1875 C2.90375 21.0946875 2.90375 21.0946875 0 21 C0 14.07 0 7.14 0 0 Z " fill="#3C3C3D" transform="translate(345,975)"/>
<path d="M0 0 C1.65 0 3.3 0 5 0 C5 6.93 5 13.86 5 21 C3.68 21 2.36 21 1 21 C0.67 17.37 0.34 13.74 0 10 C-1.32 12.64 -2.64 15.28 -4 18 C-4.99 18 -5.98 18 -7 18 C-8.32 14.7 -9.64 11.4 -11 8 C-11.33 11.96 -11.66 15.92 -12 20 C-12.99 20 -13.98 20 -15 20 C-15 13.73 -15 7.46 -15 1 C-13.35 1 -11.7 1 -10 1 C-9.32645501 2.43429001 -8.66140299 3.87257057 -8 5.3125 C-7.443125 6.51326172 -7.443125 6.51326172 -6.875 7.73828125 C-6 10 -6 10 -6 13 C-5.34 13 -4.68 13 -4 13 C-3.896875 12.154375 -3.79375 11.30875 -3.6875 10.4375 C-2.9171146 6.58557299 -1.63725486 3.55924969 0 0 Z " fill="#3E3E3E" transform="translate(799,975)"/>
<path d="M0 0 C11.45418811 -0.36948994 11.45418811 -0.36948994 13.8984375 1.28515625 C15 3 15 3 14.8125 6.625 C14.544375 7.73875 14.27625 8.8525 14 10 C13.01 10.495 13.01 10.495 12 11 C12.309375 11.763125 12.61875 12.52625 12.9375 13.3125 C13.67893593 15.18789677 14.36228217 17.08684652 15 19 C13.68 19 12.36 19 11 19 C8 14.92857143 8 14.92857143 8 12 C6.68 12 5.36 12 4 12 C4 14.64 4 17.28 4 20 C2.68 20 1.36 20 0 20 C0 13.4 0 6.8 0 0 Z " fill="#1B1B1B" transform="translate(583,976)"/>
<path d="M0 0 C11.625 -0.25 11.625 -0.25 15 2 C15.375 4.9375 15.375 4.9375 15 8 C13.5 9.875 13.5 9.875 12 11 C12.309375 11.763125 12.61875 12.52625 12.9375 13.3125 C13.67893593 15.18789677 14.36228217 17.08684652 15 19 C13.68 19 12.36 19 11 19 C8 14.92857143 8 14.92857143 8 12 C6.35 12 4.7 12 3 12 C3 14.64 3 17.28 3 20 C2.01 20 1.02 20 0 20 C0 13.4 0 6.8 0 0 Z " fill="#1D1D1D" transform="translate(927,976)"/>
<path d="M0 0 C10.36323087 -0.37011539 10.36323087 -0.37011539 13.33203125 1.35546875 C15 3 15 3 15.4375 5.5 C14.93915901 8.34766278 14.22984785 9.23470379 12 11 C13.30155006 15.07964281 13.30155006 15.07964281 15 19 C12.6875 18.8125 12.6875 18.8125 10 18 C8.96986723 16.35178756 7.96885372 14.68496298 7 13 C4.91466367 12.12177688 4.91466367 12.12177688 3 12 C3 14.31 3 16.62 3 19 C2.01 19 1.02 19 0 19 C0 12.73 0 6.46 0 0 Z " fill="#252525" transform="translate(846,976)"/>
<path d="M0 0 C4.62 0 9.24 0 14 0 C14 1.32 14 2.64 14 4 C10.7 4 7.4 4 4 4 C4 5.32 4 6.64 4 8 C6.97 8 9.94 8 13 8 C13 9.32 13 10.64 13 12 C10.03 12 7.06 12 4 12 C4 13.65 4 15.3 4 17 C7.3 17 10.6 17 14 17 C14 18.32 14 19.64 14 21 C9.38 21 4.76 21 0 21 C0 14.07 0 7.14 0 0 Z " fill="#5E5E5E" transform="translate(900,975)"/>
<path d="M0 0 C1.65 0 3.3 0 5 0 C8.01578157 6.26177547 10.58495328 12.18204762 12 19 C10.68 19 9.36 19 8 19 C7.67 18.01 7.34 17.02 7 16 C4.03 15.67 1.06 15.34 -2 15 C-2.33 16.65 -2.66 18.3 -3 20 C-4.32 20 -5.64 20 -7 20 C-6.29937517 15.43263559 -4.68729793 11.4300495 -2.9375 7.1875 C-2.51500977 6.14819336 -2.51500977 6.14819336 -2.08398438 5.08789062 C-1.39325027 3.39032376 -0.69716272 1.69493688 0 0 Z " fill="#1A1A1A" transform="translate(822,976)"/>
<path d="M0 0 C4.62 0 9.24 0 14 0 C14 1.32 14 2.64 14 4 C10.7 4 7.4 4 4 4 C4 5.65 4 7.3 4 9 C6.64 9 9.28 9 12 9 C12 9.66 12 10.32 12 11 C9.36 11 6.72 11 4 11 C4 12.98 4 14.96 4 17 C7.3 17 10.6 17 14 17 C14 18.32 14 19.64 14 21 C9.38 21 4.76 21 0 21 C0 14.07 0 7.14 0 0 Z " fill="#404040" transform="translate(714,975)"/>
<path d="M0 0 C0.99 0.66 1.98 1.32 3 2 C3 2.99 3 3.98 3 5 C0.03 4.67 -2.94 4.34 -6 4 C-6 5.32 -6 6.64 -6 8 C-5.36191406 8.20496094 -4.72382812 8.40992188 -4.06640625 8.62109375 C-3.24011719 8.89050781 -2.41382813 9.15992188 -1.5625 9.4375 C-0.73878906 9.70433594 0.08492187 9.97117187 0.93359375 10.24609375 C3 11 3 11 4 12 C4.3125 14.875 4.3125 14.875 4 18 C1.67097984 20.79482419 0.12036325 20.98495459 -3.5 21.4375 C-7.48536323 20.9393296 -8.57526306 20.10366328 -11 17 C-7.30581799 15.768606 -4.7943739 16.35567236 -1 17 C-0.67 16.01 -0.34 15.02 0 14 C-0.95712891 13.68869141 -0.95712891 13.68869141 -1.93359375 13.37109375 C-4.48000602 12.42165142 -6.71431045 11.47519175 -9 10 C-10.25 6.4375 -10.25 6.4375 -10 3 C-7.8832857 -1.10113396 -4.14361851 -0.36996594 0 0 Z " fill="#272727" transform="translate(767,975)"/>
<path d="M0 0 C4.29 0 8.58 0 13 0 C13 0.66 13 1.32 13 2 C9.7 2 6.4 2 3 2 C3 3.98 3 5.96 3 8 C5.97 8 8.94 8 12 8 C12 8.99 12 9.98 12 11 C9.36 11 6.72 11 4 11 C4 12.65 4 14.3 4 16 C7.3 16 10.6 16 14 16 C14 17.32 14 18.64 14 20 C9.38 20 4.76 20 0 20 C0 13.4 0 6.8 0 0 Z " fill="#252525" transform="translate(476,976)"/>
<path d="M0 0 C4.29 0 8.58 0 13 0 C13 0.66 13 1.32 13 2 C9.7 2 6.4 2 3 2 C3 3.98 3 5.96 3 8 C5.97 8 8.94 8 12 8 C12 8.99 12 9.98 12 11 C9.36 11 6.72 11 4 11 C4 12.65 4 14.3 4 16 C7.3 16 10.6 16 14 16 C14 16.99 14 17.98 14 19 C9.38 19 4.76 19 0 19 C0 12.73 0 6.46 0 0 Z " fill="#1B1B1C" transform="translate(557,976)"/>
<path d="M0 0 C0.99 0 1.98 0 3 0 C3.04898437 0.98742187 3.09796875 1.97484375 3.1484375 2.9921875 C3.22320312 4.27351562 3.29796875 5.55484375 3.375 6.875 C3.44460938 8.15117188 3.51421875 9.42734375 3.5859375 10.7421875 C3.67241106 14.08061699 3.67241106 14.08061699 6 16 C9.30683466 15.71016731 9.30683466 15.71016731 12 14 C12.23527773 11.65012738 12.41386417 9.29443961 12.5625 6.9375 C12.64628906 5.64714844 12.73007812 4.35679687 12.81640625 3.02734375 C12.87699219 2.02832031 12.93757813 1.02929688 13 0 C13.99 0 14.98 0 16 0 C16.13526616 2.5850867 16.23417653 5.16308752 16.3125 7.75 C16.35439453 8.47960937 16.39628906 9.20921875 16.43945312 9.9609375 C16.52780166 13.84827285 16.38528905 15.58325878 13.703125 18.484375 C10.16794886 20.46652578 7.99399905 20.58094532 4 20 C1.80078125 18.484375 1.80078125 18.484375 0 16 C-0.2906124 13.10550051 -0.38186045 10.62050065 -0.25 7.75 C-0.23195313 7.00492188 -0.21390625 6.25984375 -0.1953125 5.4921875 C-0.14835649 3.66090299 -0.07661652 1.83028351 0 0 Z " fill="#121213" transform="translate(374,976)"/>
<path d="M0 0 C1.32 0 2.64 0 4 0 C5.32 4.29 6.64 8.58 8 13 C8.639375 11.5975 9.27875 10.195 9.9375 8.75 C10.47697266 7.56664062 10.47697266 7.56664062 11.02734375 6.359375 C11.90033279 4.24176302 12.51338508 2.23330638 13 0 C14.32 0 15.64 0 17 0 C16.27526747 4.01622608 15.19981973 7.85058588 14 11.75 C13.649375 12.89984375 13.29875 14.0496875 12.9375 15.234375 C12 18 12 18 11 19 C9.33382885 19.04063832 7.66611905 19.042721 6 19 C4.99394407 16.39802798 3.99497475 13.79370638 3 11.1875 C2.57074219 10.08051758 2.57074219 10.08051758 2.1328125 8.95117188 C1.86210938 8.23896484 1.59140625 7.52675781 1.3125 6.79296875 C1.06113281 6.1383667 0.80976562 5.48376465 0.55078125 4.80932617 C0 3 0 3 0 0 Z " fill="#2B2B2B" transform="translate(685,976)"/>
<path d="M0 0 C5.28 0 10.56 0 16 0 C16 1.32 16 2.64 16 4 C14.02 4 12.04 4 10 4 C10 9.61 10 15.22 10 21 C8.68 21 7.36 21 6 21 C6 15.39 6 9.78 6 4 C4.02 4 2.04 4 0 4 C0 2.68 0 1.36 0 0 Z " fill="#373737" transform="translate(872,975)"/>
<path d="M0 0 C0.495 0.99 0.495 0.99 1 2 C-3.75128751 7.56747131 -8.70840251 12.84515339 -13.90234375 18 C-14.6249086 18.7211499 -15.34747345 19.4422998 -16.0919342 20.18530273 C-18.37142604 22.45925415 -20.6543924 24.72967954 -22.9375 27 C-24.49567506 28.55315235 -26.05361993 30.10653567 -27.61132812 31.66015625 C-31.40489759 35.44277586 -35.20131615 39.2225169 -39 43 C-39.66 42.34 -40.32 41.68 -41 41 C-27.47 27.47 -13.94 13.94 0 0 Z " fill="#1D1D21" transform="translate(790,463)"/>
<path d="M0 0 C1.32 0 2.64 0 4 0 C4 5.61 4 11.22 4 17 C6.97 17 9.94 17 13 17 C13 18.32 13 19.64 13 21 C8.71 21 4.42 21 0 21 C0 14.07 0 7.14 0 0 Z " fill="#333333" transform="translate(644,975)"/>
<path d="M0 0 C5.28 0 10.56 0 16 0 C16 0.99 16 1.98 16 3 C14.02 3 12.04 3 10 3 C10 8.61 10 14.22 10 20 C8.68 20 7.36 20 6 20 C6 14.39 6 8.78 6 3 C4.02 3 2.04 3 0 3 C0 2.01 0 1.02 0 0 Z " fill="#2D2D2D" transform="translate(501,976)"/>
<path d="M0 0 C1.75 0.125 1.75 0.125 4 1 C6.25 4.0625 6.25 4.0625 8 7 C9.32 4.69 10.64 2.38 12 0 C13.32 0.33 14.64 0.66 16 1 C15.57847656 1.6290625 15.15695312 2.258125 14.72265625 2.90625 C11.19374867 8.41964913 9.24309615 12.43640403 9 19 C8.01 19 7.02 19 6 19 C5.85304688 18.03900391 5.85304688 18.03900391 5.703125 17.05859375 C4.68724966 11.18228035 3.15104904 7.04167846 0 2 C0 1.34 0 0.68 0 0 Z " fill="#171718" transform="translate(403,976)"/>
<path d="M0 0 C10.625 -0.25 10.625 -0.25 14 2 C13.34 3.65 12.68 5.3 12 7 C10 4 10 4 10 2 C7.69 2 5.38 2 3 2 C3 4.31 3 6.62 3 9 C4.98 9 6.96 9 9 9 C8.67 9.66 8.34 10.32 8 11 C6.35 11 4.7 11 3 11 C3 13.64 3 16.28 3 19 C2.01 19 1.02 19 0 19 C0 12.73 0 6.46 0 0 Z " fill="#030303" transform="translate(846,976)"/>
<path d="M0 0 C1.65 0 3.3 0 5 0 C5.69699552 1.45381897 6.38233866 2.91322953 7.0625 4.375 C7.63677734 5.59316406 7.63677734 5.59316406 8.22265625 6.8359375 C8.47917969 7.55007813 8.73570312 8.26421875 9 9 C8.67 9.66 8.34 10.32 8 11 C7.01 10.67 6.02 10.34 5 10 C4.67 9.01 4.34 8.02 4 7 C3.67 10.96 3.34 14.92 3 19 C2.01 19 1.02 19 0 19 C0 12.73 0 6.46 0 0 Z " fill="#242425" transform="translate(784,976)"/>
<path d="M0 0 C3.96 0 7.92 0 12 0 C11.01 1.485 11.01 1.485 10 3 C7.69 2.67 5.38 2.34 3 2 C3.18129815 5.43793339 3.18129815 5.43793339 4 9 C5.93597032 10.51294288 5.93597032 10.51294288 8 11 C6.35 11 4.7 11 3 11 C3 13.97 3 16.94 3 20 C2.01 20 1.02 20 0 20 C0 13.4 0 6.8 0 0 Z " fill="#0D0E0E" transform="translate(927,976)"/>
<path d="M0 0 C1.32 0 2.64 0 4 0 C4 6.93 4 13.86 4 21 C2.68 21 1.36 21 0 21 C0 14.07 0 7.14 0 0 Z " fill="#2E2E2F" transform="translate(669,975)"/>
<path d="M0 0 C4.95 0 9.9 0 15 0 C15 0.66 15 1.32 15 2 C13.02 2 11.04 2 9 2 C9 7.94 9 13.88 9 20 C8.01 20 7.02 20 6 20 C6 14.06 6 8.12 6 2 C4.02 2 2.04 2 0 2 C0 1.34 0 0.68 0 0 Z " fill="#0F0F0F" transform="translate(529,976)"/>
<path d="M0 0 C0.99 0.33 1.98 0.66 3 1 C4.38671875 3.87109375 4.38671875 3.87109375 5.6875 7.4375 C6.34298828 9.19900391 6.34298828 9.19900391 7.01171875 10.99609375 C8 14 8 14 8 16 C6.68 16 5.36 16 4 16 C3.67 14.35 3.34 12.7 3 11 C-0.3 11 -3.6 11 -7 11 C-6.67 10.01 -6.34 9.02 -6 8 C-3.36 8.33 -0.72 8.66 2 9 C1.67 8.443125 1.34 7.88625 1 7.3125 C-0.1309601 4.69715478 -0.15662974 2.8193354 0 0 Z " fill="#141414" transform="translate(826,979)"/>
<path d="M0 0 C1.98 0 3.96 0 6 0 C6 0.66 6 1.32 6 2 C5.01 2.33 4.02 2.66 3 3 C1.99607024 9.525434 1.99607024 9.525434 3 16 C5.97 16 8.94 16 12 16 C12 16.99 12 17.98 12 19 C8.04 19 4.08 19 0 19 C0 12.73 0 6.46 0 0 Z " fill="#080808" transform="translate(346,976)"/>
<path d="M0 0 C0.33 0 0.66 0 1 0 C1 2.97 1 5.94 1 9 C1.66 9.33 2.32 9.66 3 10 C0.19149622 16.55317549 -3.33676287 21.56453499 -9 26 C-11.125 26.84765625 -11.125 26.84765625 -13 27 C-13.66 26.34 -14.32 25.68 -15 25 C-14.13375 24.649375 -13.2675 24.29875 -12.375 23.9375 C-7.20370729 20.96879493 -3.26094393 16.57088436 -1 11 C-0.54724722 8.18503259 -0.54724722 8.18503259 -0.375 5.25 C-0.30023437 4.26515625 -0.22546875 3.2803125 -0.1484375 2.265625 C-0.09945312 1.51796875 -0.05046875 0.7703125 0 0 Z " fill="#313134" transform="translate(756,334)"/>
<path d="M0 0 C2.97 0 5.94 0 9 0 C8.979375 1.11375 8.95875 2.2275 8.9375 3.375 C8.73619282 6.83215921 8.73619282 6.83215921 10 9 C6.7 9 3.4 9 0 9 C0 7.02 0 5.04 0 3 C2.64 3 5.28 3 8 3 C8 2.34 8 1.68 8 1 C5.36 1 2.72 1 0 1 C0 0.67 0 0.34 0 0 Z " fill="#CFCFCF" transform="translate(718,983)"/>
<path d="M0 0 C0 4.21680294 -1.1664175 6.08826914 -4 9.1875 C-4.99266951 10.13275843 -5.99429653 11.06862103 -7 12 C-7.79535156 12.75410156 -8.59070313 13.50820313 -9.41015625 14.28515625 C-10.28542969 15.09855469 -11.16070313 15.91195312 -12.0625 16.75 C-12.89910156 17.52859375 -13.73570312 18.3071875 -14.59765625 19.109375 C-16.93934188 20.95226255 -18.17349484 21.41656934 -21 22 C-16.61557474 16.74825074 -11.99157907 11.86777527 -7.125 7.0625 C-6.43664062 6.37865234 -5.74828125 5.69480469 -5.0390625 4.99023438 C-3.36166489 3.32448536 -1.68196209 1.6611378 0 0 Z " fill="#242428" transform="translate(715,537)"/>
<path d="M0 0 C3.0625 0.1875 3.0625 0.1875 5.0625 2.1875 C4.52678571 5.72321429 4.52678571 5.72321429 3.0625 7.1875 C0.72952567 7.22842937 -1.60455225 7.22991723 -3.9375 7.1875 C-3.98004356 5.18795254 -3.97830783 3.18708364 -3.9375 1.1875 C-2.9375 0.1875 -2.9375 0.1875 0 0 Z " fill="#C8C8C9" transform="translate(589.9375,977.8125)"/>
<path d="M0 0 C1.65 0 3.3 0 5 0 C4.01 0.33 3.02 0.66 2 1 C2 3.31 2 5.62 2 8 C4.97 8 7.94 8 11 8 C11 8.66 11 9.32 11 10 C8.36 10.33 5.72 10.66 3 11 C2.34 12.98 1.68 14.96 1 17 C0.67 17 0.34 17 0 17 C0 11.39 0 5.78 0 0 Z " fill="#040404" transform="translate(901,976)"/>
<path d="M0 0 C1.8871875 0.0309375 1.8871875 0.0309375 3.8125 0.0625 C3.8125 1.0525 3.8125 2.0425 3.8125 3.0625 C0.5125 3.0625 -2.7875 3.0625 -6.1875 3.0625 C-6.1875 4.3825 -6.1875 5.7025 -6.1875 7.0625 C-3.2175 7.0625 -0.2475 7.0625 2.8125 7.0625 C2.8125 8.3825 2.8125 9.7025 2.8125 11.0625 C-0.1575 11.0625 -3.1275 11.0625 -6.1875 11.0625 C-6.1875 10.7325 -6.1875 10.4025 -6.1875 10.0625 C-3.5475 10.0625 -0.9075 10.0625 1.8125 10.0625 C1.8125 9.4025 1.8125 8.7425 1.8125 8.0625 C-1.1575 8.0625 -4.1275 8.0625 -7.1875 8.0625 C-7.1875 5.7525 -7.1875 3.4425 -7.1875 1.0625 C-4.43671116 0.14557039 -2.82801087 -0.04636083 0 0 Z " fill="#4A4A4B" transform="translate(910.1875,975.9375)"/>
<path d="M0 0 C2.33294775 -0.04241723 4.66702567 -0.04092937 7 0 C8 1 8 1 8.125 3.5 C8 6 8 6 7 7 C4.66702567 7.04092937 2.33294775 7.04241723 0 7 C0 4.69 0 2.38 0 0 Z " fill="#A5A6A6" transform="translate(930,978)"/>
<path d="M0 0 C0.99 0.66 1.98 1.32 3 2 C3 2.99 3 3.98 3 5 C-0.3 4.67 -3.6 4.34 -7 4 C-7.33 4.99 -7.66 5.98 -8 7 C-8.99 7.495 -8.99 7.495 -10 8 C-10.21917317 5.29686424 -10.32851983 3.56041618 -8.9375 1.1875 C-5.93702602 -0.65150018 -3.43518387 -0.30671285 0 0 Z " fill="#484949" transform="translate(767,975)"/>
<path d="M0 0 C2.31 0 4.62 0 7 0 C8.125 4.75 8.125 4.75 7 7 C4.69 7 2.38 7 0 7 C0 4.69 0 2.38 0 0 Z " fill="#D0D0D0" transform="translate(849,978)"/>
<path d="M0 0 C5.53998986 5.53998986 6.03618724 17.89889453 6.0625 25.4375 C6.041875 26.613125 6.02125 27.78875 6 29 C3.32681024 23.83183314 3.01536412 20.79841127 4 15 C3.34 15 2.68 15 2 15 C1.46906676 13.06524329 0.95057683 11.12706845 0.4375 9.1875 C0.14746094 8.10855469 -0.14257812 7.02960938 -0.44140625 5.91796875 C-1 3 -1 3 0 0 Z " fill="#29292C" transform="translate(737,241)"/>
<path d="M0 0 C0.33 0 0.66 0 1 0 C1 2.31 1 4.62 1 7 C4.63 7 8.26 7 12 7 C12 7.99 12 8.98 12 10 C7.71 10 3.42 10 -1 10 C-1.125 2.25 -1.125 2.25 0 0 Z " fill="#1B1B1B" transform="translate(716,985)"/>
<path d="M0 0 C0.99 0 1.98 0 3 0 C3 5.61 3 11.22 3 17 C2.01 16.67 1.02 16.34 0 16 C0 10.72 0 5.44 0 0 Z " fill="#090909" transform="translate(374,976)"/>
<path d="M0 0 C1.32 0 2.64 0 4 0 C4 6.27 4 12.54 4 19 C3.34 19 2.68 19 2 19 C2 14.05 2 9.1 2 4 C1.34 4 0.68 4 0 4 C0 2.68 0 1.36 0 0 Z " fill="#050505" transform="translate(799,976)"/>
<path d="M0 0 C0.66 0.66 1.32 1.32 2 2 C1.625 5.625 1.625 5.625 1 9 C-0.32 9.33 -1.64 9.66 -3 10 C-2.814375 8.865625 -2.62875 7.73125 -2.4375 6.5625 C-2.293125 5.386875 -2.14875 4.21125 -2 3 C-3.18424326 1.58422523 -3.18424326 1.58422523 -6.5625 1.9375 C-8.2640625 1.9684375 -8.2640625 1.9684375 -10 2 C-10 1.34 -10 0.68 -10 0 C-6.31938873 -0.9464429 -3.66134991 -1.08850943 0 0 Z " fill="#0E0E0F" transform="translate(596,977)"/>
<path d="M0 0 C1.5625 1.0625 1.5625 1.0625 3 3 C2.55555556 9.44444444 2.55555556 9.44444444 1 11 C-0.66617115 11.04063832 -2.33388095 11.042721 -4 11 C-4 10.67 -4 10.34 -4 10 C-5.65 9.67 -7.3 9.34 -9 9 C-9 8.67 -9 8.34 -9 8 C-6.36 8 -3.72 8 -1 8 C-1.020625 7.05125 -1.04125 6.1025 -1.0625 5.125 C-1 2 -1 2 0 0 Z " fill="#2E2F2F" transform="translate(460,984)"/>
<path d="M0 0 C0.99 0.33 1.98 0.66 3 1 C-0.67832017 5.52615993 -4.41086363 9.39424999 -9 13 C-9 11.68 -9 10.36 -9 9 C-7.68 8.34 -6.36 7.68 -5 7 C-5 6.34 -5 5.68 -5 5 C-4.34 5 -3.68 5 -3 5 C-2.67 4.01 -2.34 3.02 -2 2 C-1.34 2 -0.68 2 0 2 C0 1.34 0 0.68 0 0 Z " fill="#EEEFEF" transform="translate(763,486)"/>
<path d="M0 0 C1.77049689 -0.05410687 3.54146849 -0.09284119 5.3125 -0.125 C6.29863281 -0.14820313 7.28476562 -0.17140625 8.30078125 -0.1953125 C11 0 11 0 14 2 C13.34 3.65 12.68 5.3 12 7 C10 4 10 4 10 2 C5.94914321 2.24631557 5.94914321 2.24631557 2 3 C0.4100567 4.92064793 0.4100567 4.92064793 0 7 C0 4.69 0 2.38 0 0 Z " fill="#060607" transform="translate(846,976)"/>
<path d="M0 0 C1.32 0 2.64 0 4 0 C3.67 0.99 3.34 1.98 3 3 C2.34 3 1.68 3 1 3 C1.33 3.66 1.66 4.32 2 5 C2.07116382 7.37402501 2.08409085 9.75000677 2.0625 12.125 C2.05347656 13.40632812 2.04445313 14.68765625 2.03515625 16.0078125 C2.02355469 16.99523437 2.01195312 17.98265625 2 19 C1.34 19 0.68 19 0 19 C0 12.73 0 6.46 0 0 Z " fill="#030303" transform="translate(784,976)"/>
<path d="M0 0 C0.99 0.33 1.98 0.66 3 1 C1.09236669 2.98861775 -0.82515911 4.96565718 -2.75 6.9375 C-3.55824219 7.78344727 -3.55824219 7.78344727 -4.3828125 8.64648438 C-4.91132812 9.18466797 -5.43984375 9.72285156 -5.984375 10.27734375 C-6.70705566 11.02359009 -6.70705566 11.02359009 -7.44433594 11.78491211 C-9.25704528 13.20077124 -10.75631224 13.59147949 -13 14 C-8.88380164 9.08064098 -4.59589638 4.47352044 0 0 Z " fill="#2A2A2E" transform="translate(660,591)"/>
<path d="M0 0 C2.64 0 5.28 0 8 0 C8 1.65 8 3.3 8 5 C5.36 5 2.72 5 0 5 C0 3.35 0 1.7 0 0 Z " fill="#E4E3E4" transform="translate(349,987)"/>
<path d="M0 0 C2.64 0 5.28 0 8 0 C8 1.65 8 3.3 8 5 C5.36 5 2.72 5 0 5 C0 3.35 0 1.7 0 0 Z " fill="#F0F0F0" transform="translate(451,987)"/>
<path d="M0 0 C2.97 0.33 5.94 0.66 9 1 C9 1.99 9 2.98 9 4 C7.3125 5.125 7.3125 5.125 5 6 C2.25 5.125 2.25 5.125 0 4 C0 2.68 0 1.36 0 0 Z " fill="#E4E4E4" transform="translate(761,979)"/>
<path d="M0 0 C2.97 0.33 5.94 0.66 9 1 C9.33 2.32 9.66 3.64 10 5 C6.7 5 3.4 5 0 5 C0 3.35 0 1.7 0 0 Z " fill="#EEEEEE" transform="translate(904,987)"/>
<path d="M0 0 C2.31 0 4.62 0 7 0 C7.33 0.99 7.66 1.98 8 3 C7.67 3.66 7.34 4.32 7 5 C4.69 5 2.38 5 0 5 C0 3.35 0 1.7 0 0 Z " fill="#E4E4E4" transform="translate(451,979)"/>
<path d="M0 0 C2.31 0 4.62 0 7 0 C7.33 1.32 7.66 2.64 8 4 C5.29120665 5.35439668 2.99066732 5.06501451 0 5 C0 3.35 0 1.7 0 0 Z " fill="#E3E3E3" transform="translate(349,979)"/>
<path d="M0 0 C-0.66 1.32 -1.32 2.64 -2 4 C-4.31 3.67 -6.62 3.34 -9 3 C-8.6875 1.0625 -8.6875 1.0625 -8 -1 C-4.37673261 -2.2077558 -3.35853631 -1.54311128 0 0 Z " fill="#DCDCDC" transform="translate(768,989)"/>
<path d="M0 0 C0.99 0.33 1.98 0.66 3 1 C-0.3810038 5.13621084 -3.66590534 8.81316569 -8 12 C-8.33 11.01 -8.66 10.02 -9 9 C-7.6078125 7.88625 -7.6078125 7.88625 -6.1875 6.75 C-3.72873042 4.70974439 -1.78352451 2.67528677 0 0 Z " fill="#F4F4F4" transform="translate(777,472)"/>
<path d="M0 0 C0.33 0.66 0.66 1.32 1 2 C4.3 2 7.6 2 11 2 C11 2.33 11 2.66 11 3 C8.03 3 5.06 3 2 3 C1.67 4.65 1.34 6.3 1 8 C-0.32 8 -1.64 8 -3 8 C-2.45276317 4.62537285 -1.9451 2.91765 0 0 Z " fill="#424242" transform="translate(818,988)"/>
<path d="M0 0 C2 1 2 1 2.8515625 3.28515625 C3.10679687 4.20167969 3.36203125 5.11820313 3.625 6.0625 C3.88539063 6.98160156 4.14578125 7.90070312 4.4140625 8.84765625 C4.60742188 9.55792969 4.80078125 10.26820313 5 11 C4.01 11 3.02 11 2 11 C1.34 11.66 0.68 12.32 0 13 C0 8.71 0 4.42 0 0 Z " fill="#CDCDCF" transform="translate(787,982)"/>
<path d="M0 0 C1.32 0 2.64 0 4 0 C3.39009109 3.55780196 2.4216319 6.6828589 1 10 C0.34 10 -0.32 10 -1 10 C-0.67 6.7 -0.34 3.4 0 0 Z " fill="#1A1A1A" transform="translate(698,976)"/>
<path d="M0 0 C0.99 0 1.98 0 3 0 C3.16682272 4.92127034 3.24828052 8.50343896 1 13 C0.67 13 0.34 13 0 13 C0 8.71 0 4.42 0 0 Z " fill="#060606" transform="translate(387,976)"/>
<path d="M0 0 C0.66 0.66 1.32 1.32 2 2 C-1.63 5.3 -5.26 8.6 -9 12 C-9.66 11.67 -10.32 11.34 -11 11 C-7.37 7.37 -3.74 3.74 0 0 Z " fill="#121314" transform="translate(811,886)"/>
<path d="M0 0 C0.66 0.33 1.32 0.66 2 1 C2.73075648 3.3140622 3.40138258 5.64828869 4 8 C2.02 8 0.04 8 -2 8 C-1.125 2.25 -1.125 2.25 0 0 Z " fill="#D4D5D5" transform="translate(824,980)"/>
<path d="M0 0 C1.35015859 4.05047576 0.62084998 6.7920168 0 11 C-0.99 11 -1.98 11 -3 11 C-3 8.36 -3 5.72 -3 3 C-2.34 3 -1.68 3 -1 3 C-0.67 2.01 -0.34 1.02 0 0 Z " fill="#050505" transform="translate(412,984)"/>
<path d="M0 0 C0.33 0.66 0.66 1.32 1 2 C-0.07192184 3.3218362 -1.15802695 4.63217927 -2.25 5.9375 C-2.85328125 6.66839844 -3.4565625 7.39929688 -4.078125 8.15234375 C-6.10741134 10.10326334 -7.254407 10.61731779 -10 11 C-6.79239749 7.19364503 -3.59253891 3.45436433 0 0 Z " fill="#2E2E32" transform="translate(790,463)"/>
<path d="M0 0 C1.98 0 3.96 0 6 0 C6 0.66 6 1.32 6 2 C5.01 2.33 4.02 2.66 3 3 C2.19787372 4.87387216 2.19787372 4.87387216 1.8125 7.0625 C1.65394531 7.79597656 1.49539063 8.52945313 1.33203125 9.28515625 C1.16767578 10.13400391 1.16767578 10.13400391 1 11 C0.67 11 0.34 11 0 11 C0 7.37 0 3.74 0 0 Z " fill="#020202" transform="translate(346,976)"/>
<path d="M0 0 C1.98 0 3.96 0 6 0 C5.67 1.32 5.34 2.64 5 4 C3.35 4.33 1.7 4.66 0 5 C0 3.35 0 1.7 0 0 Z " fill="#F4F4F4" transform="translate(931,979)"/>
<path d="M0 0 C-0.99 1.485 -0.99 1.485 -2 3 C-4.31 2.67 -6.62 2.34 -9 2 C-9 3.65 -9 5.3 -9 7 C-9.33 7 -9.66 7 -10 7 C-10 4.69 -10 2.38 -10 0 C-3.375 -1.125 -3.375 -1.125 0 0 Z " fill="#383839" transform="translate(460,977)"/>
<path d="M0 0 C1.32 0.33 2.64 0.66 4 1 C2.02 3.31 0.04 5.62 -2 8 C-4 5 -4 5 -4 2 C-2.68 2 -1.36 2 0 2 C0 1.34 0 0.68 0 0 Z " fill="#242427" transform="translate(480,734)"/>
<path d="M0 0 C1.32 0 2.64 0 4 0 C4.36625971 4.51720311 4.36625971 4.51720311 2.625 6.8125 C1 8 1 8 -1 8 C-0.67 5.36 -0.34 2.72 0 0 Z " fill="#2A292A" transform="translate(611,992)"/>
<path d="M0 0 C2.64 0 5.28 0 8 0 C8 1.32 8 2.64 8 4 C5.36 4 2.72 4 0 4 C0 2.68 0 1.36 0 0 Z " fill="#EBEBEB" transform="translate(481,988)"/>
<path d="M0 0 C0.33 0 0.66 0 1 0 C1 2.97 1 5.94 1 9 C1.66 9.33 2.32 9.66 3 10 C2.01 12.31 1.02 14.62 0 17 C-0.33 17 -0.66 17 -1 17 C-0.67 11.39 -0.34 5.78 0 0 Z " fill="#3D3E41" transform="translate(756,334)"/>
<path d="M0 0 C0.33 0 0.66 0 1 0 C1 4.29 1 8.58 1 13 C0.67 13 0.34 13 0 13 C-0.33 11.02 -0.66 9.04 -1 7 C-1.33 7.99 -1.66 8.98 -2 10 C-2.66 9.67 -3.32 9.34 -4 9 C-2.68 6.03 -1.36 3.06 0 0 Z " fill="#E1E1E1" transform="translate(799,983)"/>
<path d="M0 0 C2.64 0 5.28 0 8 0 C8.33 1.32 8.66 2.64 9 4 C5.7 3.34 2.4 2.68 -1 2 C-0.67 1.34 -0.34 0.68 0 0 Z " fill="#131313" transform="translate(761,976)"/>
<path d="M0 0 C2 1 2 1 3 3 C1.54618103 3.69699552 0.08677047 4.38233866 -1.375 5.0625 C-2.18710937 5.44535156 -2.99921875 5.82820313 -3.8359375 6.22265625 C-4.55007813 6.47917969 -5.26421875 6.73570312 -6 7 C-6.66 6.67 -7.32 6.34 -8 6 C-5.36 4.02 -2.72 2.04 0 0 Z " fill="#2D2E31" transform="translate(418,314)"/>
<path d="M0 0 C3.61861111 5.42791666 3.11082539 11.68295272 3 18 C0.72350188 13.5987703 -0.12094458 10.28028936 -0.0625 5.3125 C-0.05347656 4.31863281 -0.04445313 3.32476562 -0.03515625 2.30078125 C-0.02355469 1.54152344 -0.01195312 0.78226563 0 0 Z " fill="#656567" transform="translate(740,252)"/>
<path d="M0 0 C1.53202706 0.25195908 3.05257128 0.57596777 4.5625 0.9375 C5.38878906 1.13214844 6.21507812 1.32679688 7.06640625 1.52734375 C8.02353516 1.76130859 8.02353516 1.76130859 9 2 C9 2.66 9 3.32 9 4 C7.72125 4.061875 6.4425 4.12375 5.125 4.1875 C4.40570312 4.22230469 3.68640625 4.25710938 2.9453125 4.29296875 C2.30335938 4.19628906 1.66140625 4.09960938 1 4 C0.34 3.01 -0.32 2.02 -1 1 C-0.67 0.67 -0.34 0.34 0 0 Z " fill="#0F0F0F" transform="translate(757,991)"/>
<path d="M0 0 C2.01136276 2.55991624 3.62845496 5.04590299 5 8 C3.35 7.67 1.7 7.34 0 7 C-0.38133299 5.0085944 -0.71325582 3.00720923 -1 1 C-0.67 0.67 -0.34 0.34 0 0 Z " fill="#181818" transform="translate(856,987)"/>
<path d="M0 0 C2.31 0 4.62 0 7 0 C7.33 1.32 7.66 2.64 8 4 C5.36 4 2.72 4 0 4 C0 2.68 0 1.36 0 0 Z " fill="#EBECEC" transform="translate(562,988)"/>
<path d="M0 0 C0.33 0.99 0.66 1.98 1 3 C1.66 3 2.32 3 3 3 C3 3.66 3 4.32 3 5 C2.34 5 1.68 5 1 5 C0.67 6.65 0.34 8.3 0 10 C-0.99 9.67 -1.98 9.34 -3 9 C-2.01 6.03 -1.02 3.06 0 0 Z " fill="#242525" transform="translate(798,977)"/>
<path d="M0 0 C0.33 0.99 0.66 1.98 1 3 C-4.2734375 6.22265625 -4.2734375 6.22265625 -6 7 C-6.66 6.67 -7.32 6.34 -8 6 C-7.0479279 4.99403703 -6.08812654 3.99538437 -5.125 3 C-4.59132813 2.443125 -4.05765625 1.88625 -3.5078125 1.3125 C-2 0 -2 0 0 0 Z " fill="#2B2B2D" transform="translate(538,918)"/>
<path d="M0 0 C1.485 0.99 1.485 0.99 3 2 C3.125 4.875 3.125 4.875 3 8 C3.43941523 10.26566343 3.43941523 10.26566343 4 12 C2.29159719 10.36587557 1.06546953 9.13093906 0 7 C-0.04022391 4.6670134 -0.04320247 2.33293334 0 0 Z " fill="#2D2D2F" transform="translate(721,332)"/>
<path d="M0 0 C0.99 0.33 1.98 0.66 3 1 C4.1875 4.5625 4.1875 4.5625 5 8 C3.68 7.67 2.36 7.34 1 7 C0.67 4.69 0.34 2.38 0 0 Z " fill="#1E1F1F" transform="translate(788,979)"/>
<path d="M0 0 C0 0.99 0 1.98 0 3 C-1.75 4.125 -1.75 4.125 -4 5 C-6.25 4.125 -6.25 4.125 -8 3 C-5.22569089 1.15046059 -3.35957737 0 0 0 Z " fill="#2F2F30" transform="translate(420,792)"/>
<path d="M0 0 C-1.6875 1.5625 -1.6875 1.5625 -4 3 C-6.75 2.6875 -6.75 2.6875 -9 2 C-9 1.34 -9 0.68 -9 0 C-3.375 -1.125 -3.375 -1.125 0 0 Z " fill="#E7E7E7" transform="translate(739,347)"/>
<path d="M0 0 C0.66 0.33 1.32 0.66 2 1 C2 5.66666667 2 10.33333333 2 15 C-0.19219402 12.63310671 -0.9871902 11.48272731 -1.07421875 8.203125 C-0.88279297 6.74132812 -0.88279297 6.74132812 -0.6875 5.25 C-0.50767578 3.77273438 -0.50767578 3.77273438 -0.32421875 2.265625 C-0.21722656 1.51796875 -0.11023438 0.7703125 0 0 Z " fill="#252528" transform="translate(753,313)"/>
<path d="M0 0 C1.485 0.99 1.485 0.99 3 2 C3.1875 5.625 3.1875 5.625 3 9 C2.01 9.33 1.02 9.66 0 10 C0 6.7 0 3.4 0 0 Z " fill="#212124" transform="translate(740,268)"/>
<path d="M0 0 C1.485 0.99 1.485 0.99 3 2 C3 2.66 3 3.32 3 4 C4.65 4.33 6.3 4.66 8 5 C8 5.33 8 5.66 8 6 C5.69 6 3.38 6 1 6 C-0.0625 4.125 -0.0625 4.125 -1 2 C-0.67 1.34 -0.34 0.68 0 0 Z " fill="#373738" transform="translate(377,990)"/>
<path d="M0 0 C0 1.65 0 3.3 0 5 C-1.65 5.33 -3.3 5.66 -5 6 C-4.6875 4.125 -4.6875 4.125 -4 2 C-1 0 -1 0 0 0 Z " fill="#100F10" transform="translate(697,989)"/>
<path d="M0 0 C2 1 2 1 5 3 C4.34 4.65 3.68 6.3 3 8 C2.34 7.67 1.68 7.34 1 7 C0.59270772 4.67843403 0.25561323 2.3431213 0 0 Z " fill="#D5D5D6" transform="translate(691,982)"/>
<path d="M0 0 C0.66 0 1.32 0 2 0 C2.66 1.98 3.32 3.96 4 6 C3.34 6.66 2.68 7.32 2 8 C0 6 0 6 -0.125 2.875 C-0.08375 1.92625 -0.0425 0.9775 0 0 Z " fill="#141415" transform="translate(689,984)"/>
<path d="M0 0 C1.32 0.99 2.64 1.98 4 3 C4 3.66 4 4.32 4 5 C3.01 5 2.02 5 1 5 C1 6.98 1 8.96 1 11 C0.67 11 0.34 11 0 11 C0 7.37 0 3.74 0 0 Z " fill="#EEEEEE" transform="translate(957,888)"/>
<path d="M0 0 C4.59037956 1.14759489 5.33669182 2.29039218 8 6 C7.34 6.66 6.68 7.32 6 8 C4.02 5.36 2.04 2.72 0 0 Z " fill="#222226" transform="translate(924,786)"/>
<path d="M0 0 C2.475 0.99 2.475 0.99 5 2 C4.34 3.65 3.68 5.3 3 7 C1 4 1 4 1 2 C0.34 1.67 -0.32 1.34 -1 1 C-0.67 0.67 -0.34 0.34 0 0 Z " fill="#141414" transform="translate(855,976)"/>
<path d="M0 0 C2.31 1.98 4.62 3.96 7 6 C6.67 6.66 6.34 7.32 6 8 C2.24623848 6.74874616 1.75926711 5.4347596 0 2 C0 1.34 0 0.68 0 0 Z " fill="#222125" transform="translate(914,772)"/>
<path d="M0 0 C0.33 0 0.66 0 1 0 C0.6875 3.375 0.6875 3.375 0 7 C-0.99 7.66 -1.98 8.32 -3 9 C-3.33 8.34 -3.66 7.68 -4 7 C-3.22265625 5.2734375 -3.22265625 5.2734375 -2.0625 3.375 C-1.381875 2.26125 -0.70125 1.1475 0 0 Z " fill="#27272B" transform="translate(506,725)"/>
<path d="M0 0 C2.3431213 0.25561323 4.67843403 0.59270772 7 1 C7.33 1.66 7.66 2.32 8 3 C5.03 3 2.06 3 -1 3 C-0.67 2.01 -0.34 1.02 0 0 Z " fill="#090909" transform="translate(820,987)"/>
<path d="M0 0 C1.1171875 1.765625 1.1171875 1.765625 2 4 C1.06434658 6.64564072 -0.45014515 8.62963376 -2 11 C-3 9 -3 9 -2.44140625 6.8359375 C-2.15136719 6.02382813 -1.86132812 5.21171875 -1.5625 4.375 C-1.27503906 3.55773437 -0.98757813 2.74046875 -0.69140625 1.8984375 C-0.46324219 1.27195312 -0.23507812 0.64546875 0 0 Z " fill="#C9C8CA" transform="translate(676,740)"/>
<path d="M0 0 C0 0.99 0 1.98 0 3 C-2.70879335 4.35439668 -5.00933268 4.06501451 -8 4 C-2.7826087 0 -2.7826087 0 0 0 Z " fill="#2B2B2E" transform="translate(577,167)"/>
<path d="M0 0 C2.31 0 4.62 0 7 0 C6.67 0.66 6.34 1.32 6 2 C4.68 1.67 3.36 1.34 2 1 C2.33 1.99 2.66 2.98 3 4 C2.01 4.33 1.02 4.66 0 5 C0 3.35 0 1.7 0 0 Z " fill="#F7F6F7" transform="translate(349,987)"/>
<path d="M0 0 C1.32 0 2.64 0 4 0 C3.67 1.65 3.34 3.3 3 5 C1.68 5 0.36 5 -1 5 C-0.67 3.35 -0.34 1.7 0 0 Z " fill="#272828" transform="translate(819,983)"/>
</svg>
